<svg width="428" height="762" viewBox="0 0 428 762" fill="none" xmlns="http://www.w3.org/2000/svg">
<g clip-path="url(#clip0_1_5)">
<rect width="428" height="762" fill="#F4E8DE"/>
<g filter="url(#filter0_d_1_5)">
<rect x="12" y="80" width="404" height="108" rx="12" fill="#F4E8DE"/>
<rect x="12.5" y="80.5" width="403" height="107" rx="11.5" stroke="#A77C5D"/>
</g>
<rect x="36.5" y="104.5" width="59" height="59" rx="23.5" fill="#C4C4C4" stroke="#A77C5D"/>
<path fill-rule="evenodd" clip-rule="evenodd" d="M83.0216 130.868C82.4827 131.443 82 132.428 82 134C82 135.105 81.1046 136 80 136C78.8954 136 78 135.105 78 134C78 131.572 78.7673 129.557 80.1034 128.132C81.43 126.717 83.2134 126 85 126C86.7866 126 88.57 126.717 89.8966 128.132C91.2327 129.557 92 131.572 92 134C92 135.105 91.1046 136 90 136C88.8954 136 88 135.105 88 134C88 132.428 87.5173 131.443 86.9784 130.868C86.43 130.283 85.7134 130 85 130C84.2866 130 83.57 130.283 83.0216 130.868Z" fill="#0C5497"/>
<path fill-rule="evenodd" clip-rule="evenodd" d="M78 144.583C80.4895 141.763 82 138.058 82 134V118L77.3137 122.686C74.4183 119.791 70.4183 118 66 118C61.5817 118 57.5817 119.791 54.6863 122.686L50 118V134C50 138.058 51.5105 141.763 54 144.583V148C54 149.105 54.8954 150 56 150C57.1046 150 58 149.105 58 148V147.859C58.64 148.23 59.308 148.557 60 148.837V152C60 153.105 60.8954 154 62 154C63.1046 154 64 153.105 64 152V149.876C64.6552 149.958 65.3227 150 66 150C66.6773 150 67.3448 149.958 68 149.876V152C68 153.105 68.8954 154 70 154C71.1046 154 72 153.105 72 152V148.837C72.692 148.557 73.36 148.23 74 147.859V148C74 149.105 74.8954 150 76 150C77.1046 150 78 149.105 78 148V144.583Z" fill="#0C5497"/>
<circle cx="58" cy="128" r="2" fill="#C4C4C4"/>
<circle cx="74" cy="128" r="2" fill="#C4C4C4"/>
<path fill-rule="evenodd" clip-rule="evenodd" d="M69 128C68.4477 128 68 128.448 68 129C68 129.729 67.7367 130.202 67.3981 130.503C67.0412 130.82 66.5369 131 66 131C65.4631 131 64.9588 130.82 64.6019 130.503C64.2633 130.202 64 129.729 64 129C64 128.448 63.5523 128 63 128C62.4477 128 62 128.448 62 129C62 130.271 62.4867 131.298 63.2731 131.997C64.0412 132.68 65.0369 133 66 133C66.9631 133 67.9588 132.68 68.7269 131.997C69.5133 131.298 70 130.271 70 129C70 128.448 69.5523 128 69 128Z" fill="#C4C4C4"/>
<path d="M128.273 119.309H123.715V117.469H128.273C129.156 117.469 129.871 117.328 130.418 117.047C130.965 116.766 131.363 116.375 131.613 115.875C131.871 115.375 132 114.805 132 114.164C132 113.578 131.871 113.027 131.613 112.512C131.363 111.996 130.965 111.582 130.418 111.27C129.871 110.949 129.156 110.789 128.273 110.789H124.242V126H121.98V108.938H128.273C129.562 108.938 130.652 109.16 131.543 109.605C132.434 110.051 133.109 110.668 133.57 111.457C134.031 112.238 134.262 113.133 134.262 114.141C134.262 115.234 134.031 116.168 133.57 116.941C133.109 117.715 132.434 118.305 131.543 118.711C130.652 119.109 129.562 119.309 128.273 119.309ZM136.055 119.801V119.531C136.055 118.617 136.188 117.77 136.453 116.988C136.719 116.199 137.102 115.516 137.602 114.938C138.102 114.352 138.707 113.898 139.418 113.578C140.129 113.25 140.926 113.086 141.809 113.086C142.699 113.086 143.5 113.25 144.211 113.578C144.93 113.898 145.539 114.352 146.039 114.938C146.547 115.516 146.934 116.199 147.199 116.988C147.465 117.77 147.598 118.617 147.598 119.531V119.801C147.598 120.715 147.465 121.562 147.199 122.344C146.934 123.125 146.547 123.809 146.039 124.395C145.539 124.973 144.934 125.426 144.223 125.754C143.52 126.074 142.723 126.234 141.832 126.234C140.941 126.234 140.141 126.074 139.43 125.754C138.719 125.426 138.109 124.973 137.602 124.395C137.102 123.809 136.719 123.125 136.453 122.344C136.188 121.562 136.055 120.715 136.055 119.801ZM138.223 119.531V119.801C138.223 120.434 138.297 121.031 138.445 121.594C138.594 122.148 138.816 122.641 139.113 123.07C139.418 123.5 139.797 123.84 140.25 124.09C140.703 124.332 141.23 124.453 141.832 124.453C142.426 124.453 142.945 124.332 143.391 124.09C143.844 123.84 144.219 123.5 144.516 123.07C144.812 122.641 145.035 122.148 145.184 121.594C145.34 121.031 145.418 120.434 145.418 119.801V119.531C145.418 118.906 145.34 118.316 145.184 117.762C145.035 117.199 144.809 116.703 144.504 116.273C144.207 115.836 143.832 115.492 143.379 115.242C142.934 114.992 142.41 114.867 141.809 114.867C141.215 114.867 140.691 114.992 140.238 115.242C139.793 115.492 139.418 115.836 139.113 116.273C138.816 116.703 138.594 117.199 138.445 117.762C138.297 118.316 138.223 118.906 138.223 119.531ZM152.672 108V126H150.492V108H152.672ZM158.508 113.32V126H156.328V113.32H158.508ZM156.164 109.957C156.164 109.605 156.27 109.309 156.48 109.066C156.699 108.824 157.02 108.703 157.441 108.703C157.855 108.703 158.172 108.824 158.391 109.066C158.617 109.309 158.73 109.605 158.73 109.957C158.73 110.293 158.617 110.582 158.391 110.824C158.172 111.059 157.855 111.176 157.441 111.176C157.02 111.176 156.699 111.059 156.48 110.824C156.27 110.582 156.164 110.293 156.164 109.957ZM164.145 115.84V126H161.965V113.32H164.027L164.145 115.84ZM163.699 119.18L162.691 119.145C162.699 118.277 162.812 117.477 163.031 116.742C163.25 116 163.574 115.355 164.004 114.809C164.434 114.262 164.969 113.84 165.609 113.543C166.25 113.238 166.992 113.086 167.836 113.086C168.43 113.086 168.977 113.172 169.477 113.344C169.977 113.508 170.41 113.77 170.777 114.129C171.145 114.488 171.43 114.949 171.633 115.512C171.836 116.074 171.938 116.754 171.938 117.551V126H169.77V117.656C169.77 116.992 169.656 116.461 169.43 116.062C169.211 115.664 168.898 115.375 168.492 115.195C168.086 115.008 167.609 114.914 167.062 114.914C166.422 114.914 165.887 115.027 165.457 115.254C165.027 115.48 164.684 115.793 164.426 116.191C164.168 116.59 163.98 117.047 163.863 117.562C163.754 118.07 163.699 118.609 163.699 119.18ZM171.914 117.984L170.461 118.43C170.469 117.734 170.582 117.066 170.801 116.426C171.027 115.785 171.352 115.215 171.773 114.715C172.203 114.215 172.73 113.82 173.355 113.531C173.98 113.234 174.695 113.086 175.5 113.086C176.18 113.086 176.781 113.176 177.305 113.355C177.836 113.535 178.281 113.812 178.641 114.188C179.008 114.555 179.285 115.027 179.473 115.605C179.66 116.184 179.754 116.871 179.754 117.668V126H177.574V117.645C177.574 116.934 177.461 116.383 177.234 115.992C177.016 115.594 176.703 115.316 176.297 115.16C175.898 114.996 175.422 114.914 174.867 114.914C174.391 114.914 173.969 114.996 173.602 115.16C173.234 115.324 172.926 115.551 172.676 115.84C172.426 116.121 172.234 116.445 172.102 116.812C171.977 117.18 171.914 117.57 171.914 117.984ZM182.461 119.801V119.531C182.461 118.617 182.594 117.77 182.859 116.988C183.125 116.199 183.508 115.516 184.008 114.938C184.508 114.352 185.113 113.898 185.824 113.578C186.535 113.25 187.332 113.086 188.215 113.086C189.105 113.086 189.906 113.25 190.617 113.578C191.336 113.898 191.945 114.352 192.445 114.938C192.953 115.516 193.34 116.199 193.605 116.988C193.871 117.77 194.004 118.617 194.004 119.531V119.801C194.004 120.715 193.871 121.562 193.605 122.344C193.34 123.125 192.953 123.809 192.445 124.395C191.945 124.973 191.34 125.426 190.629 125.754C189.926 126.074 189.129 126.234 188.238 126.234C187.348 126.234 186.547 126.074 185.836 125.754C185.125 125.426 184.516 124.973 184.008 124.395C183.508 123.809 183.125 123.125 182.859 122.344C182.594 121.562 182.461 120.715 182.461 119.801ZM184.629 119.531V119.801C184.629 120.434 184.703 121.031 184.852 121.594C185 122.148 185.223 122.641 185.52 123.07C185.824 123.5 186.203 123.84 186.656 124.09C187.109 124.332 187.637 124.453 188.238 124.453C188.832 124.453 189.352 124.332 189.797 124.09C190.25 123.84 190.625 123.5 190.922 123.07C191.219 122.641 191.441 122.148 191.59 121.594C191.746 121.031 191.824 120.434 191.824 119.801V119.531C191.824 118.906 191.746 118.316 191.59 117.762C191.441 117.199 191.215 116.703 190.91 116.273C190.613 115.836 190.238 115.492 189.785 115.242C189.34 114.992 188.816 114.867 188.215 114.867C187.621 114.867 187.098 114.992 186.645 115.242C186.199 115.492 185.824 115.836 185.52 116.273C185.223 116.703 185 117.199 184.852 117.762C184.703 118.316 184.629 118.906 184.629 119.531ZM198.891 115.312V126H196.723V113.32H198.832L198.891 115.312ZM202.852 113.25L202.84 115.266C202.66 115.227 202.488 115.203 202.324 115.195C202.168 115.18 201.988 115.172 201.785 115.172C201.285 115.172 200.844 115.25 200.461 115.406C200.078 115.562 199.754 115.781 199.488 116.062C199.223 116.344 199.012 116.68 198.855 117.07C198.707 117.453 198.609 117.875 198.562 118.336L197.953 118.688C197.953 117.922 198.027 117.203 198.176 116.531C198.332 115.859 198.57 115.266 198.891 114.75C199.211 114.227 199.617 113.82 200.109 113.531C200.609 113.234 201.203 113.086 201.891 113.086C202.047 113.086 202.227 113.105 202.43 113.145C202.633 113.176 202.773 113.211 202.852 113.25ZM208.277 126H206.109V111.984C206.109 111.07 206.273 110.301 206.602 109.676C206.938 109.043 207.418 108.566 208.043 108.246C208.668 107.918 209.41 107.754 210.27 107.754C210.52 107.754 210.77 107.77 211.02 107.801C211.277 107.832 211.527 107.879 211.77 107.941L211.652 109.711C211.488 109.672 211.301 109.645 211.09 109.629C210.887 109.613 210.684 109.605 210.48 109.605C210.02 109.605 209.621 109.699 209.285 109.887C208.957 110.066 208.707 110.332 208.535 110.684C208.363 111.035 208.277 111.469 208.277 111.984V126ZM210.973 113.32V114.984H204.105V113.32H210.973Z" fill="#332317"/>
<path d="M349.064 168.055V169.355C349.064 170.055 349.002 170.645 348.877 171.125C348.752 171.605 348.572 171.992 348.338 172.285C348.104 172.578 347.82 172.791 347.488 172.924C347.16 173.053 346.789 173.117 346.375 173.117C346.047 173.117 345.744 173.076 345.467 172.994C345.189 172.912 344.939 172.781 344.717 172.602C344.498 172.418 344.311 172.18 344.154 171.887C343.998 171.594 343.879 171.238 343.797 170.82C343.715 170.402 343.674 169.914 343.674 169.355V168.055C343.674 167.355 343.736 166.77 343.861 166.297C343.99 165.824 344.172 165.445 344.406 165.16C344.641 164.871 344.922 164.664 345.25 164.539C345.582 164.414 345.953 164.352 346.363 164.352C346.695 164.352 347 164.393 347.277 164.475C347.559 164.553 347.809 164.68 348.027 164.855C348.246 165.027 348.432 165.258 348.584 165.547C348.74 165.832 348.859 166.182 348.941 166.596C349.023 167.01 349.064 167.496 349.064 168.055ZM347.975 169.531V167.873C347.975 167.49 347.951 167.154 347.904 166.865C347.861 166.572 347.797 166.322 347.711 166.115C347.625 165.908 347.516 165.74 347.383 165.611C347.254 165.482 347.104 165.389 346.932 165.33C346.764 165.268 346.574 165.236 346.363 165.236C346.105 165.236 345.877 165.285 345.678 165.383C345.479 165.477 345.311 165.627 345.174 165.834C345.041 166.041 344.939 166.312 344.869 166.648C344.799 166.984 344.764 167.393 344.764 167.873V169.531C344.764 169.914 344.785 170.252 344.828 170.545C344.875 170.838 344.943 171.092 345.033 171.307C345.123 171.518 345.232 171.691 345.361 171.828C345.49 171.965 345.639 172.066 345.807 172.133C345.979 172.195 346.168 172.227 346.375 172.227C346.641 172.227 346.873 172.176 347.072 172.074C347.271 171.973 347.438 171.814 347.57 171.6C347.707 171.381 347.809 171.102 347.875 170.762C347.941 170.418 347.975 170.008 347.975 169.531ZM355.838 170.691C355.838 171.211 355.717 171.652 355.475 172.016C355.236 172.375 354.912 172.648 354.502 172.836C354.096 173.023 353.637 173.117 353.125 173.117C352.613 173.117 352.152 173.023 351.742 172.836C351.332 172.648 351.008 172.375 350.77 172.016C350.531 171.652 350.412 171.211 350.412 170.691C350.412 170.352 350.477 170.041 350.605 169.76C350.738 169.475 350.924 169.227 351.162 169.016C351.404 168.805 351.689 168.643 352.018 168.529C352.35 168.412 352.715 168.354 353.113 168.354C353.637 168.354 354.104 168.455 354.514 168.658C354.924 168.857 355.246 169.133 355.48 169.484C355.719 169.836 355.838 170.238 355.838 170.691ZM354.748 170.668C354.748 170.352 354.68 170.072 354.543 169.83C354.406 169.584 354.215 169.393 353.969 169.256C353.723 169.119 353.438 169.051 353.113 169.051C352.781 169.051 352.494 169.119 352.252 169.256C352.014 169.393 351.828 169.584 351.695 169.83C351.562 170.072 351.496 170.352 351.496 170.668C351.496 170.996 351.561 171.277 351.689 171.512C351.822 171.742 352.01 171.92 352.252 172.045C352.498 172.166 352.789 172.227 353.125 172.227C353.461 172.227 353.75 172.166 353.992 172.045C354.234 171.92 354.42 171.742 354.549 171.512C354.682 171.277 354.748 170.996 354.748 170.668ZM355.639 166.689C355.639 167.104 355.529 167.477 355.311 167.809C355.092 168.141 354.793 168.402 354.414 168.594C354.035 168.785 353.605 168.881 353.125 168.881C352.637 168.881 352.201 168.785 351.818 168.594C351.439 168.402 351.143 168.141 350.928 167.809C350.713 167.477 350.605 167.104 350.605 166.689C350.605 166.193 350.713 165.771 350.928 165.424C351.146 165.076 351.445 164.811 351.824 164.627C352.203 164.443 352.635 164.352 353.119 164.352C353.607 164.352 354.041 164.443 354.42 164.627C354.799 164.811 355.096 165.076 355.311 165.424C355.529 165.771 355.639 166.193 355.639 166.689ZM354.555 166.707C354.555 166.422 354.494 166.17 354.373 165.951C354.252 165.732 354.084 165.561 353.869 165.436C353.654 165.307 353.404 165.242 353.119 165.242C352.834 165.242 352.584 165.303 352.369 165.424C352.158 165.541 351.992 165.709 351.871 165.928C351.754 166.146 351.695 166.406 351.695 166.707C351.695 167 351.754 167.256 351.871 167.475C351.992 167.693 352.16 167.863 352.375 167.984C352.59 168.105 352.84 168.166 353.125 168.166C353.41 168.166 353.658 168.105 353.869 167.984C354.084 167.863 354.252 167.693 354.373 167.475C354.494 167.256 354.555 167 354.555 166.707ZM357.344 172.426C357.344 172.242 357.4 172.088 357.514 171.963C357.631 171.834 357.799 171.77 358.018 171.77C358.236 171.77 358.402 171.834 358.516 171.963C358.633 172.088 358.691 172.242 358.691 172.426C358.691 172.605 358.633 172.758 358.516 172.883C358.402 173.008 358.236 173.07 358.018 173.07C357.799 173.07 357.631 173.008 357.514 172.883C357.4 172.758 357.344 172.605 357.344 172.426ZM365.729 168.055V169.355C365.729 170.055 365.666 170.645 365.541 171.125C365.416 171.605 365.236 171.992 365.002 172.285C364.768 172.578 364.484 172.791 364.152 172.924C363.824 173.053 363.453 173.117 363.039 173.117C362.711 173.117 362.408 173.076 362.131 172.994C361.854 172.912 361.604 172.781 361.381 172.602C361.162 172.418 360.975 172.18 360.818 171.887C360.662 171.594 360.543 171.238 360.461 170.82C360.379 170.402 360.338 169.914 360.338 169.355V168.055C360.338 167.355 360.4 166.77 360.525 166.297C360.654 165.824 360.836 165.445 361.07 165.16C361.305 164.871 361.586 164.664 361.914 164.539C362.246 164.414 362.617 164.352 363.027 164.352C363.359 164.352 363.664 164.393 363.941 164.475C364.223 164.553 364.473 164.68 364.691 164.855C364.91 165.027 365.096 165.258 365.248 165.547C365.404 165.832 365.523 166.182 365.605 166.596C365.688 167.01 365.729 167.496 365.729 168.055ZM364.639 169.531V167.873C364.639 167.49 364.615 167.154 364.568 166.865C364.525 166.572 364.461 166.322 364.375 166.115C364.289 165.908 364.18 165.74 364.047 165.611C363.918 165.482 363.768 165.389 363.596 165.33C363.428 165.268 363.238 165.236 363.027 165.236C362.77 165.236 362.541 165.285 362.342 165.383C362.143 165.477 361.975 165.627 361.838 165.834C361.705 166.041 361.604 166.312 361.533 166.648C361.463 166.984 361.428 167.393 361.428 167.873V169.531C361.428 169.914 361.449 170.252 361.492 170.545C361.539 170.838 361.607 171.092 361.697 171.307C361.787 171.518 361.896 171.691 362.025 171.828C362.154 171.965 362.303 172.066 362.471 172.133C362.643 172.195 362.832 172.227 363.039 172.227C363.305 172.227 363.537 172.176 363.736 172.074C363.936 171.973 364.102 171.814 364.234 171.6C364.371 171.381 364.473 171.102 364.539 170.762C364.605 170.418 364.639 170.008 364.639 169.531ZM372.889 170.129V171.02H366.725V170.381L370.545 164.469H371.43L370.48 166.18L367.955 170.129H372.889ZM371.699 164.469V173H370.615V164.469H371.699ZM374.008 172.426C374.008 172.242 374.064 172.088 374.178 171.963C374.295 171.834 374.463 171.77 374.682 171.77C374.9 171.77 375.066 171.834 375.18 171.963C375.297 172.088 375.355 172.242 375.355 172.426C375.355 172.605 375.297 172.758 375.18 172.883C375.066 173.008 374.9 173.07 374.682 173.07C374.463 173.07 374.295 173.008 374.178 172.883C374.064 172.758 374.008 172.605 374.008 172.426ZM382.627 172.109V173H377.043V172.221L379.838 169.109C380.182 168.727 380.447 168.402 380.635 168.137C380.826 167.867 380.959 167.627 381.033 167.416C381.111 167.201 381.15 166.982 381.15 166.76C381.15 166.479 381.092 166.225 380.975 165.998C380.861 165.768 380.693 165.584 380.471 165.447C380.248 165.311 379.979 165.242 379.662 165.242C379.283 165.242 378.967 165.316 378.713 165.465C378.463 165.609 378.275 165.812 378.15 166.074C378.025 166.336 377.963 166.637 377.963 166.977H376.879C376.879 166.496 376.984 166.057 377.195 165.658C377.406 165.26 377.719 164.943 378.133 164.709C378.547 164.471 379.057 164.352 379.662 164.352C380.201 164.352 380.662 164.447 381.045 164.639C381.428 164.826 381.721 165.092 381.924 165.436C382.131 165.775 382.234 166.174 382.234 166.631C382.234 166.881 382.191 167.135 382.105 167.393C382.023 167.646 381.908 167.9 381.76 168.154C381.615 168.408 381.445 168.658 381.25 168.904C381.059 169.15 380.854 169.393 380.635 169.631L378.35 172.109H382.627ZM389.143 168.055V169.355C389.143 170.055 389.08 170.645 388.955 171.125C388.83 171.605 388.65 171.992 388.416 172.285C388.182 172.578 387.898 172.791 387.566 172.924C387.238 173.053 386.867 173.117 386.453 173.117C386.125 173.117 385.822 173.076 385.545 172.994C385.268 172.912 385.018 172.781 384.795 172.602C384.576 172.418 384.389 172.18 384.232 171.887C384.076 171.594 383.957 171.238 383.875 170.82C383.793 170.402 383.752 169.914 383.752 169.355V168.055C383.752 167.355 383.814 166.77 383.939 166.297C384.068 165.824 384.25 165.445 384.484 165.16C384.719 164.871 385 164.664 385.328 164.539C385.66 164.414 386.031 164.352 386.441 164.352C386.773 164.352 387.078 164.393 387.355 164.475C387.637 164.553 387.887 164.68 388.105 164.855C388.324 165.027 388.51 165.258 388.662 165.547C388.818 165.832 388.938 166.182 389.02 166.596C389.102 167.01 389.143 167.496 389.143 168.055ZM388.053 169.531V167.873C388.053 167.49 388.029 167.154 387.982 166.865C387.939 166.572 387.875 166.322 387.789 166.115C387.703 165.908 387.594 165.74 387.461 165.611C387.332 165.482 387.182 165.389 387.01 165.33C386.842 165.268 386.652 165.236 386.441 165.236C386.184 165.236 385.955 165.285 385.756 165.383C385.557 165.477 385.389 165.627 385.252 165.834C385.119 166.041 385.018 166.312 384.947 166.648C384.877 166.984 384.842 167.393 384.842 167.873V169.531C384.842 169.914 384.863 170.252 384.906 170.545C384.953 170.838 385.021 171.092 385.111 171.307C385.201 171.518 385.311 171.691 385.439 171.828C385.568 171.965 385.717 172.066 385.885 172.133C386.057 172.195 386.246 172.227 386.453 172.227C386.719 172.227 386.951 172.176 387.15 172.074C387.35 171.973 387.516 171.814 387.648 171.6C387.785 171.381 387.887 171.102 387.953 170.762C388.02 170.418 388.053 170.008 388.053 169.531ZM396.127 172.109V173H390.543V172.221L393.338 169.109C393.682 168.727 393.947 168.402 394.135 168.137C394.326 167.867 394.459 167.627 394.533 167.416C394.611 167.201 394.65 166.982 394.65 166.76C394.65 166.479 394.592 166.225 394.475 165.998C394.361 165.768 394.193 165.584 393.971 165.447C393.748 165.311 393.479 165.242 393.162 165.242C392.783 165.242 392.467 165.316 392.213 165.465C391.963 165.609 391.775 165.812 391.65 166.074C391.525 166.336 391.463 166.637 391.463 166.977H390.379C390.379 166.496 390.484 166.057 390.695 165.658C390.906 165.26 391.219 164.943 391.633 164.709C392.047 164.471 392.557 164.352 393.162 164.352C393.701 164.352 394.162 164.447 394.545 164.639C394.928 164.826 395.221 165.092 395.424 165.436C395.631 165.775 395.734 166.174 395.734 166.631C395.734 166.881 395.691 167.135 395.605 167.393C395.523 167.646 395.408 167.9 395.26 168.154C395.115 168.408 394.945 168.658 394.75 168.904C394.559 169.15 394.354 169.393 394.135 169.631L391.85 172.109H396.127ZM402.877 172.109V173H397.293V172.221L400.088 169.109C400.432 168.727 400.697 168.402 400.885 168.137C401.076 167.867 401.209 167.627 401.283 167.416C401.361 167.201 401.4 166.982 401.4 166.76C401.4 166.479 401.342 166.225 401.225 165.998C401.111 165.768 400.943 165.584 400.721 165.447C400.498 165.311 400.229 165.242 399.912 165.242C399.533 165.242 399.217 165.316 398.963 165.465C398.713 165.609 398.525 165.812 398.4 166.074C398.275 166.336 398.213 166.637 398.213 166.977H397.129C397.129 166.496 397.234 166.057 397.445 165.658C397.656 165.26 397.969 164.943 398.383 164.709C398.797 164.471 399.307 164.352 399.912 164.352C400.451 164.352 400.912 164.447 401.295 164.639C401.678 164.826 401.971 165.092 402.174 165.436C402.381 165.775 402.484 166.174 402.484 166.631C402.484 166.881 402.441 167.135 402.355 167.393C402.273 167.646 402.158 167.9 402.01 168.154C401.865 168.408 401.695 168.658 401.5 168.904C401.309 169.15 401.104 169.393 400.885 169.631L398.6 172.109H402.877Z" fill="black"/>
<path d="M394.607 95.5C394.739 95.5 394.866 95.5527 394.96 95.6464L397.789 98.4749C397.984 98.6701 397.984 98.9867 397.789 99.182L388.596 108.374C388.533 108.437 388.455 108.482 388.369 108.505L384.541 109.505C384.369 109.549 384.186 109.5 384.061 109.374C383.935 109.249 383.886 109.066 383.93 108.894L384.93 105.066C384.953 104.98 384.998 104.902 385.061 104.839L394.253 95.6464C394.347 95.5527 394.474 95.5 394.607 95.5Z" fill="#332317"/>
<path d="M384 111.25C383.586 111.25 383.25 111.586 383.25 112C383.25 112.414 383.586 112.75 384 112.75H399C399.414 112.75 399.75 112.414 399.75 112C399.75 111.586 399.414 111.25 399 111.25H384Z" fill="#332317"/>
<g clip-path="url(#clip1_1_5)">
<path d="M123.055 146.602H124.086C124.591 146.602 125.008 146.518 125.336 146.352C125.669 146.18 125.917 145.948 126.078 145.656C126.245 145.359 126.328 145.026 126.328 144.656C126.328 144.219 126.255 143.852 126.109 143.555C125.964 143.258 125.745 143.034 125.453 142.883C125.161 142.732 124.792 142.656 124.344 142.656C123.938 142.656 123.578 142.737 123.266 142.898C122.958 143.055 122.716 143.279 122.539 143.57C122.367 143.862 122.281 144.206 122.281 144.602H120.836C120.836 144.023 120.982 143.497 121.273 143.023C121.565 142.549 121.974 142.172 122.5 141.891C123.031 141.609 123.646 141.469 124.344 141.469C125.031 141.469 125.633 141.591 126.148 141.836C126.664 142.076 127.065 142.435 127.352 142.914C127.638 143.388 127.781 143.979 127.781 144.688C127.781 144.974 127.714 145.281 127.578 145.609C127.448 145.932 127.242 146.234 126.961 146.516C126.685 146.797 126.326 147.029 125.883 147.211C125.44 147.388 124.909 147.477 124.289 147.477H123.055V146.602ZM123.055 147.789V146.922H124.289C125.013 146.922 125.612 147.008 126.086 147.18C126.56 147.352 126.932 147.581 127.203 147.867C127.479 148.154 127.672 148.469 127.781 148.812C127.896 149.151 127.953 149.49 127.953 149.828C127.953 150.359 127.862 150.831 127.68 151.242C127.503 151.654 127.25 152.003 126.922 152.289C126.599 152.576 126.219 152.792 125.781 152.938C125.344 153.083 124.867 153.156 124.352 153.156C123.857 153.156 123.391 153.086 122.953 152.945C122.521 152.805 122.138 152.602 121.805 152.336C121.471 152.065 121.211 151.734 121.023 151.344C120.836 150.948 120.742 150.497 120.742 149.992H122.188C122.188 150.388 122.273 150.734 122.445 151.031C122.622 151.328 122.872 151.56 123.195 151.727C123.523 151.888 123.909 151.969 124.352 151.969C124.794 151.969 125.174 151.893 125.492 151.742C125.815 151.586 126.062 151.352 126.234 151.039C126.411 150.727 126.5 150.333 126.5 149.859C126.5 149.385 126.401 148.997 126.203 148.695C126.005 148.388 125.724 148.161 125.359 148.016C125 147.865 124.576 147.789 124.086 147.789H123.055ZM131.414 151.281V152.445C131.414 152.919 131.294 153.419 131.055 153.945C130.815 154.477 130.479 154.919 130.047 155.273L129.227 154.703C129.393 154.474 129.534 154.24 129.648 154C129.763 153.766 129.849 153.521 129.906 153.266C129.969 153.016 130 152.75 130 152.469V151.281H131.414ZM134.93 147.586L133.773 147.289L134.344 141.625H140.18V142.961H135.57L135.227 146.055C135.435 145.935 135.698 145.823 136.016 145.719C136.339 145.615 136.708 145.562 137.125 145.562C137.651 145.562 138.122 145.654 138.539 145.836C138.956 146.013 139.31 146.268 139.602 146.602C139.898 146.935 140.125 147.336 140.281 147.805C140.438 148.273 140.516 148.797 140.516 149.375C140.516 149.922 140.44 150.424 140.289 150.883C140.143 151.341 139.922 151.742 139.625 152.086C139.328 152.424 138.953 152.688 138.5 152.875C138.052 153.062 137.523 153.156 136.914 153.156C136.456 153.156 136.021 153.094 135.609 152.969C135.203 152.839 134.839 152.643 134.516 152.383C134.198 152.117 133.938 151.789 133.734 151.398C133.536 151.003 133.411 150.539 133.359 150.008H134.734C134.797 150.435 134.922 150.794 135.109 151.086C135.297 151.378 135.542 151.599 135.844 151.75C136.151 151.896 136.508 151.969 136.914 151.969C137.258 151.969 137.562 151.909 137.828 151.789C138.094 151.669 138.318 151.497 138.5 151.273C138.682 151.049 138.82 150.779 138.914 150.461C139.013 150.143 139.062 149.786 139.062 149.391C139.062 149.031 139.013 148.698 138.914 148.391C138.815 148.083 138.667 147.815 138.469 147.586C138.276 147.357 138.039 147.18 137.758 147.055C137.477 146.924 137.154 146.859 136.789 146.859C136.305 146.859 135.938 146.924 135.688 147.055C135.443 147.185 135.19 147.362 134.93 147.586ZM147.953 141.625V153H146.445V141.625H147.953ZM154.82 141.625L150.094 146.93L147.438 149.688L147.188 148.078L149.188 145.875L153.008 141.625H154.82ZM153.367 153L149.156 147.453L150.055 146.258L155.164 153H153.367ZM164.648 147.336V151.5C164.508 151.708 164.284 151.943 163.977 152.203C163.669 152.458 163.245 152.682 162.703 152.875C162.167 153.062 161.474 153.156 160.625 153.156C159.932 153.156 159.294 153.036 158.711 152.797C158.133 152.552 157.63 152.198 157.203 151.734C156.781 151.266 156.453 150.698 156.219 150.031C155.99 149.359 155.875 148.599 155.875 147.75V146.867C155.875 146.018 155.974 145.26 156.172 144.594C156.375 143.927 156.672 143.362 157.062 142.898C157.453 142.43 157.932 142.076 158.5 141.836C159.068 141.591 159.719 141.469 160.453 141.469C161.323 141.469 162.049 141.62 162.633 141.922C163.221 142.219 163.68 142.63 164.008 143.156C164.341 143.682 164.555 144.281 164.648 144.953H163.141C163.073 144.542 162.938 144.167 162.734 143.828C162.536 143.49 162.253 143.219 161.883 143.016C161.513 142.807 161.036 142.703 160.453 142.703C159.927 142.703 159.471 142.799 159.086 142.992C158.701 143.185 158.383 143.461 158.133 143.82C157.883 144.18 157.695 144.615 157.57 145.125C157.451 145.635 157.391 146.211 157.391 146.852V147.75C157.391 148.406 157.466 148.992 157.617 149.508C157.773 150.023 157.995 150.464 158.281 150.828C158.568 151.188 158.909 151.461 159.305 151.648C159.706 151.836 160.148 151.93 160.633 151.93C161.169 151.93 161.604 151.885 161.938 151.797C162.271 151.703 162.531 151.594 162.719 151.469C162.906 151.339 163.049 151.216 163.148 151.102V148.555H160.516V147.336H164.648Z" fill="black"/>
<path d="M183.926 142.614C183.824 142.37 183.63 142.176 183.386 142.074C183.266 142.023 183.136 141.996 183.006 141.994H177.006C176.741 141.994 176.486 142.1 176.299 142.287C176.111 142.475 176.006 142.729 176.006 142.994C176.006 143.259 176.111 143.514 176.299 143.701C176.486 143.889 176.741 143.994 177.006 143.994H180.596L172.296 152.284C172.202 152.377 172.128 152.488 172.077 152.61C172.026 152.731 172 152.862 172 152.994C172 153.126 172.026 153.257 172.077 153.379C172.128 153.501 172.202 153.611 172.296 153.704C172.389 153.798 172.499 153.872 172.621 153.923C172.743 153.974 172.874 154 173.006 154C173.138 154 173.269 153.974 173.39 153.923C173.512 153.872 173.623 153.798 173.716 153.704L182.006 145.404V148.994C182.006 149.259 182.111 149.514 182.299 149.701C182.486 149.889 182.741 149.994 183.006 149.994C183.271 149.994 183.525 149.889 183.713 149.701C183.9 149.514 184.006 149.259 184.006 148.994V142.994C184.004 142.864 183.977 142.734 183.926 142.614Z" fill="#49970C"/>
</g>
<g filter="url(#filter1_d_1_5)">
<rect x="12" y="204" width="404" height="108" rx="12" fill="#F4E8DE"/>
<rect x="12.5" y="204.5" width="403" height="107" rx="11.5" stroke="#A77C5D"/>
</g>
<rect x="36.5" y="228.5" width="59" height="59" rx="23.5" fill="#C4C4C4" stroke="#A77C5D"/>
<path fill-rule="evenodd" clip-rule="evenodd" d="M83.0216 254.868C82.4827 255.443 82 256.428 82 258C82 259.105 81.1046 260 80 260C78.8954 260 78 259.105 78 258C78 255.572 78.7673 253.557 80.1034 252.132C81.43 250.717 83.2134 250 85 250C86.7866 250 88.57 250.717 89.8966 252.132C91.2327 253.557 92 255.572 92 258C92 259.105 91.1046 260 90 260C88.8954 260 88 259.105 88 258C88 256.428 87.5173 255.443 86.9784 254.868C86.43 254.283 85.7134 254 85 254C84.2866 254 83.57 254.283 83.0216 254.868Z" fill="#490C97"/>
<path fill-rule="evenodd" clip-rule="evenodd" d="M78 268.583C80.4895 265.763 82 262.058 82 258V242L77.3137 246.686C74.4183 243.791 70.4183 242 66 242C61.5817 242 57.5817 243.791 54.6863 246.686L50 242V258C50 262.058 51.5105 265.763 54 268.583V272C54 273.105 54.8954 274 56 274C57.1046 274 58 273.105 58 272V271.859C58.64 272.23 59.308 272.557 60 272.837V276C60 277.105 60.8954 278 62 278C63.1046 278 64 277.105 64 276V273.876C64.6552 273.958 65.3227 274 66 274C66.6773 274 67.3448 273.958 68 273.876V276C68 277.105 68.8954 278 70 278C71.1046 278 72 277.105 72 276V272.837C72.692 272.557 73.36 272.23 74 271.859V272C74 273.105 74.8954 274 76 274C77.1046 274 78 273.105 78 272V268.583Z" fill="#490C97"/>
<circle cx="58" cy="252" r="2" fill="#C4C4C4"/>
<circle cx="74" cy="252" r="2" fill="#C4C4C4"/>
<path fill-rule="evenodd" clip-rule="evenodd" d="M69 252C68.4477 252 68 252.448 68 253C68 253.729 67.7367 254.202 67.3981 254.503C67.0412 254.82 66.5369 255 66 255C65.4631 255 64.9588 254.82 64.6019 254.503C64.2633 254.202 64 253.729 64 253C64 252.448 63.5523 252 63 252C62.4477 252 62 252.448 62 253C62 254.271 62.4867 255.298 63.2731 255.997C64.0412 256.68 65.0369 257 66 257C66.9631 257 67.9588 256.68 68.7269 255.997C69.5133 255.298 70 254.271 70 253C70 252.448 69.5523 252 69 252Z" fill="#C4C4C4"/>
<path d="M128.273 243.309H123.715V241.469H128.273C129.156 241.469 129.871 241.328 130.418 241.047C130.965 240.766 131.363 240.375 131.613 239.875C131.871 239.375 132 238.805 132 238.164C132 237.578 131.871 237.027 131.613 236.512C131.363 235.996 130.965 235.582 130.418 235.27C129.871 234.949 129.156 234.789 128.273 234.789H124.242V250H121.98V232.938H128.273C129.562 232.938 130.652 233.16 131.543 233.605C132.434 234.051 133.109 234.668 133.57 235.457C134.031 236.238 134.262 237.133 134.262 238.141C134.262 239.234 134.031 240.168 133.57 240.941C133.109 241.715 132.434 242.305 131.543 242.711C130.652 243.109 129.562 243.309 128.273 243.309ZM144.551 247.07V237.32H146.73V250H144.656L144.551 247.07ZM144.961 244.398L145.863 244.375C145.863 245.219 145.773 246 145.594 246.719C145.422 247.43 145.141 248.047 144.75 248.57C144.359 249.094 143.848 249.504 143.215 249.801C142.582 250.09 141.812 250.234 140.906 250.234C140.289 250.234 139.723 250.145 139.207 249.965C138.699 249.785 138.262 249.508 137.895 249.133C137.527 248.758 137.242 248.27 137.039 247.668C136.844 247.066 136.746 246.344 136.746 245.5V237.32H138.914V245.523C138.914 246.094 138.977 246.566 139.102 246.941C139.234 247.309 139.41 247.602 139.629 247.82C139.855 248.031 140.105 248.18 140.379 248.266C140.66 248.352 140.949 248.395 141.246 248.395C142.168 248.395 142.898 248.219 143.438 247.867C143.977 247.508 144.363 247.027 144.598 246.426C144.84 245.816 144.961 245.141 144.961 244.398ZM152.391 232V250H150.211V232H152.391ZM158.039 232V250H155.871V232H158.039ZM157.523 243.18L156.621 243.145C156.629 242.277 156.758 241.477 157.008 240.742C157.258 240 157.609 239.355 158.062 238.809C158.516 238.262 159.055 237.84 159.68 237.543C160.312 237.238 161.012 237.086 161.777 237.086C162.402 237.086 162.965 237.172 163.465 237.344C163.965 237.508 164.391 237.773 164.742 238.141C165.102 238.508 165.375 238.984 165.562 239.57C165.75 240.148 165.844 240.855 165.844 241.691V250H163.664V241.668C163.664 241.004 163.566 240.473 163.371 240.074C163.176 239.668 162.891 239.375 162.516 239.195C162.141 239.008 161.68 238.914 161.133 238.914C160.594 238.914 160.102 239.027 159.656 239.254C159.219 239.48 158.84 239.793 158.52 240.191C158.207 240.59 157.961 241.047 157.781 241.562C157.609 242.07 157.523 242.609 157.523 243.18ZM174.352 250.234C173.469 250.234 172.668 250.086 171.949 249.789C171.238 249.484 170.625 249.059 170.109 248.512C169.602 247.965 169.211 247.316 168.938 246.566C168.664 245.816 168.527 244.996 168.527 244.105V243.613C168.527 242.582 168.68 241.664 168.984 240.859C169.289 240.047 169.703 239.359 170.227 238.797C170.75 238.234 171.344 237.809 172.008 237.52C172.672 237.23 173.359 237.086 174.07 237.086C174.977 237.086 175.758 237.242 176.414 237.555C177.078 237.867 177.621 238.305 178.043 238.867C178.465 239.422 178.777 240.078 178.98 240.836C179.184 241.586 179.285 242.406 179.285 243.297V244.27H169.816V242.5H177.117V242.336C177.086 241.773 176.969 241.227 176.766 240.695C176.57 240.164 176.258 239.727 175.828 239.383C175.398 239.039 174.812 238.867 174.07 238.867C173.578 238.867 173.125 238.973 172.711 239.184C172.297 239.387 171.941 239.691 171.645 240.098C171.348 240.504 171.117 241 170.953 241.586C170.789 242.172 170.707 242.848 170.707 243.613V244.105C170.707 244.707 170.789 245.273 170.953 245.805C171.125 246.328 171.371 246.789 171.691 247.188C172.02 247.586 172.414 247.898 172.875 248.125C173.344 248.352 173.875 248.465 174.469 248.465C175.234 248.465 175.883 248.309 176.414 247.996C176.945 247.684 177.41 247.266 177.809 246.742L179.121 247.785C178.848 248.199 178.5 248.594 178.078 248.969C177.656 249.344 177.137 249.648 176.52 249.883C175.91 250.117 175.188 250.234 174.352 250.234ZM183.984 239.312V250H181.816V237.32H183.926L183.984 239.312ZM187.945 237.25L187.934 239.266C187.754 239.227 187.582 239.203 187.418 239.195C187.262 239.18 187.082 239.172 186.879 239.172C186.379 239.172 185.938 239.25 185.555 239.406C185.172 239.562 184.848 239.781 184.582 240.062C184.316 240.344 184.105 240.68 183.949 241.07C183.801 241.453 183.703 241.875 183.656 242.336L183.047 242.688C183.047 241.922 183.121 241.203 183.27 240.531C183.426 239.859 183.664 239.266 183.984 238.75C184.305 238.227 184.711 237.82 185.203 237.531C185.703 237.234 186.297 237.086 186.984 237.086C187.141 237.086 187.32 237.105 187.523 237.145C187.727 237.176 187.867 237.211 187.945 237.25ZM192.305 237.32V250H190.125V237.32H192.305ZM189.961 233.957C189.961 233.605 190.066 233.309 190.277 233.066C190.496 232.824 190.816 232.703 191.238 232.703C191.652 232.703 191.969 232.824 192.188 233.066C192.414 233.309 192.527 233.605 192.527 233.957C192.527 234.293 192.414 234.582 192.188 234.824C191.969 235.059 191.652 235.176 191.238 235.176C190.816 235.176 190.496 235.059 190.277 234.824C190.066 234.582 189.961 234.293 189.961 233.957ZM203.262 247.832V241.305C203.262 240.805 203.16 240.371 202.957 240.004C202.762 239.629 202.465 239.34 202.066 239.137C201.668 238.934 201.176 238.832 200.59 238.832C200.043 238.832 199.562 238.926 199.148 239.113C198.742 239.301 198.422 239.547 198.188 239.852C197.961 240.156 197.848 240.484 197.848 240.836H195.68C195.68 240.383 195.797 239.934 196.031 239.488C196.266 239.043 196.602 238.641 197.039 238.281C197.484 237.914 198.016 237.625 198.633 237.414C199.258 237.195 199.953 237.086 200.719 237.086C201.641 237.086 202.453 237.242 203.156 237.555C203.867 237.867 204.422 238.34 204.82 238.973C205.227 239.598 205.43 240.383 205.43 241.328V247.234C205.43 247.656 205.465 248.105 205.535 248.582C205.613 249.059 205.727 249.469 205.875 249.812V250H203.613C203.504 249.75 203.418 249.418 203.355 249.004C203.293 248.582 203.262 248.191 203.262 247.832ZM203.637 242.312L203.66 243.836H201.469C200.852 243.836 200.301 243.887 199.816 243.988C199.332 244.082 198.926 244.227 198.598 244.422C198.27 244.617 198.02 244.863 197.848 245.16C197.676 245.449 197.59 245.789 197.59 246.18C197.59 246.578 197.68 246.941 197.859 247.27C198.039 247.598 198.309 247.859 198.668 248.055C199.035 248.242 199.484 248.336 200.016 248.336C200.68 248.336 201.266 248.195 201.773 247.914C202.281 247.633 202.684 247.289 202.98 246.883C203.285 246.477 203.449 246.082 203.473 245.699L204.398 246.742C204.344 247.07 204.195 247.434 203.953 247.832C203.711 248.23 203.387 248.613 202.98 248.98C202.582 249.34 202.105 249.641 201.551 249.883C201.004 250.117 200.387 250.234 199.699 250.234C198.84 250.234 198.086 250.066 197.438 249.73C196.797 249.395 196.297 248.945 195.938 248.383C195.586 247.812 195.41 247.176 195.41 246.473C195.41 245.793 195.543 245.195 195.809 244.68C196.074 244.156 196.457 243.723 196.957 243.379C197.457 243.027 198.059 242.762 198.762 242.582C199.465 242.402 200.25 242.312 201.117 242.312H203.637Z" fill="#332317"/>
<path d="M349.064 292.055V293.355C349.064 294.055 349.002 294.645 348.877 295.125C348.752 295.605 348.572 295.992 348.338 296.285C348.104 296.578 347.82 296.791 347.488 296.924C347.16 297.053 346.789 297.117 346.375 297.117C346.047 297.117 345.744 297.076 345.467 296.994C345.189 296.912 344.939 296.781 344.717 296.602C344.498 296.418 344.311 296.18 344.154 295.887C343.998 295.594 343.879 295.238 343.797 294.82C343.715 294.402 343.674 293.914 343.674 293.355V292.055C343.674 291.355 343.736 290.77 343.861 290.297C343.99 289.824 344.172 289.445 344.406 289.16C344.641 288.871 344.922 288.664 345.25 288.539C345.582 288.414 345.953 288.352 346.363 288.352C346.695 288.352 347 288.393 347.277 288.475C347.559 288.553 347.809 288.68 348.027 288.855C348.246 289.027 348.432 289.258 348.584 289.547C348.74 289.832 348.859 290.182 348.941 290.596C349.023 291.01 349.064 291.496 349.064 292.055ZM347.975 293.531V291.873C347.975 291.49 347.951 291.154 347.904 290.865C347.861 290.572 347.797 290.322 347.711 290.115C347.625 289.908 347.516 289.74 347.383 289.611C347.254 289.482 347.104 289.389 346.932 289.33C346.764 289.268 346.574 289.236 346.363 289.236C346.105 289.236 345.877 289.285 345.678 289.383C345.479 289.477 345.311 289.627 345.174 289.834C345.041 290.041 344.939 290.312 344.869 290.648C344.799 290.984 344.764 291.393 344.764 291.873V293.531C344.764 293.914 344.785 294.252 344.828 294.545C344.875 294.838 344.943 295.092 345.033 295.307C345.123 295.518 345.232 295.691 345.361 295.828C345.49 295.965 345.639 296.066 345.807 296.133C345.979 296.195 346.168 296.227 346.375 296.227C346.641 296.227 346.873 296.176 347.072 296.074C347.271 295.973 347.438 295.814 347.57 295.6C347.707 295.381 347.809 295.102 347.875 294.762C347.941 294.418 347.975 294.008 347.975 293.531ZM355.838 294.691C355.838 295.211 355.717 295.652 355.475 296.016C355.236 296.375 354.912 296.648 354.502 296.836C354.096 297.023 353.637 297.117 353.125 297.117C352.613 297.117 352.152 297.023 351.742 296.836C351.332 296.648 351.008 296.375 350.77 296.016C350.531 295.652 350.412 295.211 350.412 294.691C350.412 294.352 350.477 294.041 350.605 293.76C350.738 293.475 350.924 293.227 351.162 293.016C351.404 292.805 351.689 292.643 352.018 292.529C352.35 292.412 352.715 292.354 353.113 292.354C353.637 292.354 354.104 292.455 354.514 292.658C354.924 292.857 355.246 293.133 355.48 293.484C355.719 293.836 355.838 294.238 355.838 294.691ZM354.748 294.668C354.748 294.352 354.68 294.072 354.543 293.83C354.406 293.584 354.215 293.393 353.969 293.256C353.723 293.119 353.438 293.051 353.113 293.051C352.781 293.051 352.494 293.119 352.252 293.256C352.014 293.393 351.828 293.584 351.695 293.83C351.562 294.072 351.496 294.352 351.496 294.668C351.496 294.996 351.561 295.277 351.689 295.512C351.822 295.742 352.01 295.92 352.252 296.045C352.498 296.166 352.789 296.227 353.125 296.227C353.461 296.227 353.75 296.166 353.992 296.045C354.234 295.92 354.42 295.742 354.549 295.512C354.682 295.277 354.748 294.996 354.748 294.668ZM355.639 290.689C355.639 291.104 355.529 291.477 355.311 291.809C355.092 292.141 354.793 292.402 354.414 292.594C354.035 292.785 353.605 292.881 353.125 292.881C352.637 292.881 352.201 292.785 351.818 292.594C351.439 292.402 351.143 292.141 350.928 291.809C350.713 291.477 350.605 291.104 350.605 290.689C350.605 290.193 350.713 289.771 350.928 289.424C351.146 289.076 351.445 288.811 351.824 288.627C352.203 288.443 352.635 288.352 353.119 288.352C353.607 288.352 354.041 288.443 354.42 288.627C354.799 288.811 355.096 289.076 355.311 289.424C355.529 289.771 355.639 290.193 355.639 290.689ZM354.555 290.707C354.555 290.422 354.494 290.17 354.373 289.951C354.252 289.732 354.084 289.561 353.869 289.436C353.654 289.307 353.404 289.242 353.119 289.242C352.834 289.242 352.584 289.303 352.369 289.424C352.158 289.541 351.992 289.709 351.871 289.928C351.754 290.146 351.695 290.406 351.695 290.707C351.695 291 351.754 291.256 351.871 291.475C351.992 291.693 352.16 291.863 352.375 291.984C352.59 292.105 352.84 292.166 353.125 292.166C353.41 292.166 353.658 292.105 353.869 291.984C354.084 291.863 354.252 291.693 354.373 291.475C354.494 291.256 354.555 291 354.555 290.707ZM357.344 296.426C357.344 296.242 357.4 296.088 357.514 295.963C357.631 295.834 357.799 295.77 358.018 295.77C358.236 295.77 358.402 295.834 358.516 295.963C358.633 296.088 358.691 296.242 358.691 296.426C358.691 296.605 358.633 296.758 358.516 296.883C358.402 297.008 358.236 297.07 358.018 297.07C357.799 297.07 357.631 297.008 357.514 296.883C357.4 296.758 357.344 296.605 357.344 296.426ZM365.729 292.055V293.355C365.729 294.055 365.666 294.645 365.541 295.125C365.416 295.605 365.236 295.992 365.002 296.285C364.768 296.578 364.484 296.791 364.152 296.924C363.824 297.053 363.453 297.117 363.039 297.117C362.711 297.117 362.408 297.076 362.131 296.994C361.854 296.912 361.604 296.781 361.381 296.602C361.162 296.418 360.975 296.18 360.818 295.887C360.662 295.594 360.543 295.238 360.461 294.82C360.379 294.402 360.338 293.914 360.338 293.355V292.055C360.338 291.355 360.4 290.77 360.525 290.297C360.654 289.824 360.836 289.445 361.07 289.16C361.305 288.871 361.586 288.664 361.914 288.539C362.246 288.414 362.617 288.352 363.027 288.352C363.359 288.352 363.664 288.393 363.941 288.475C364.223 288.553 364.473 288.68 364.691 288.855C364.91 289.027 365.096 289.258 365.248 289.547C365.404 289.832 365.523 290.182 365.605 290.596C365.688 291.01 365.729 291.496 365.729 292.055ZM364.639 293.531V291.873C364.639 291.49 364.615 291.154 364.568 290.865C364.525 290.572 364.461 290.322 364.375 290.115C364.289 289.908 364.18 289.74 364.047 289.611C363.918 289.482 363.768 289.389 363.596 289.33C363.428 289.268 363.238 289.236 363.027 289.236C362.77 289.236 362.541 289.285 362.342 289.383C362.143 289.477 361.975 289.627 361.838 289.834C361.705 290.041 361.604 290.312 361.533 290.648C361.463 290.984 361.428 291.393 361.428 291.873V293.531C361.428 293.914 361.449 294.252 361.492 294.545C361.539 294.838 361.607 295.092 361.697 295.307C361.787 295.518 361.896 295.691 362.025 295.828C362.154 295.965 362.303 296.066 362.471 296.133C362.643 296.195 362.832 296.227 363.039 296.227C363.305 296.227 363.537 296.176 363.736 296.074C363.936 295.973 364.102 295.814 364.234 295.6C364.371 295.381 364.473 295.102 364.539 294.762C364.605 294.418 364.639 294.008 364.639 293.531ZM372.889 294.129V295.02H366.725V294.381L370.545 288.469H371.43L370.48 290.18L367.955 294.129H372.889ZM371.699 288.469V297H370.615V288.469H371.699ZM374.008 296.426C374.008 296.242 374.064 296.088 374.178 295.963C374.295 295.834 374.463 295.77 374.682 295.77C374.9 295.77 375.066 295.834 375.18 295.963C375.297 296.088 375.355 296.242 375.355 296.426C375.355 296.605 375.297 296.758 375.18 296.883C375.066 297.008 374.9 297.07 374.682 297.07C374.463 297.07 374.295 297.008 374.178 296.883C374.064 296.758 374.008 296.605 374.008 296.426ZM382.627 296.109V297H377.043V296.221L379.838 293.109C380.182 292.727 380.447 292.402 380.635 292.137C380.826 291.867 380.959 291.627 381.033 291.416C381.111 291.201 381.15 290.982 381.15 290.76C381.15 290.479 381.092 290.225 380.975 289.998C380.861 289.768 380.693 289.584 380.471 289.447C380.248 289.311 379.979 289.242 379.662 289.242C379.283 289.242 378.967 289.316 378.713 289.465C378.463 289.609 378.275 289.812 378.15 290.074C378.025 290.336 377.963 290.637 377.963 290.977H376.879C376.879 290.496 376.984 290.057 377.195 289.658C377.406 289.26 377.719 288.943 378.133 288.709C378.547 288.471 379.057 288.352 379.662 288.352C380.201 288.352 380.662 288.447 381.045 288.639C381.428 288.826 381.721 289.092 381.924 289.436C382.131 289.775 382.234 290.174 382.234 290.631C382.234 290.881 382.191 291.135 382.105 291.393C382.023 291.646 381.908 291.9 381.76 292.154C381.615 292.408 381.445 292.658 381.25 292.904C381.059 293.15 380.854 293.393 380.635 293.631L378.35 296.109H382.627ZM389.143 292.055V293.355C389.143 294.055 389.08 294.645 388.955 295.125C388.83 295.605 388.65 295.992 388.416 296.285C388.182 296.578 387.898 296.791 387.566 296.924C387.238 297.053 386.867 297.117 386.453 297.117C386.125 297.117 385.822 297.076 385.545 296.994C385.268 296.912 385.018 296.781 384.795 296.602C384.576 296.418 384.389 296.18 384.232 295.887C384.076 295.594 383.957 295.238 383.875 294.82C383.793 294.402 383.752 293.914 383.752 293.355V292.055C383.752 291.355 383.814 290.77 383.939 290.297C384.068 289.824 384.25 289.445 384.484 289.16C384.719 288.871 385 288.664 385.328 288.539C385.66 288.414 386.031 288.352 386.441 288.352C386.773 288.352 387.078 288.393 387.355 288.475C387.637 288.553 387.887 288.68 388.105 288.855C388.324 289.027 388.51 289.258 388.662 289.547C388.818 289.832 388.938 290.182 389.02 290.596C389.102 291.01 389.143 291.496 389.143 292.055ZM388.053 293.531V291.873C388.053 291.49 388.029 291.154 387.982 290.865C387.939 290.572 387.875 290.322 387.789 290.115C387.703 289.908 387.594 289.74 387.461 289.611C387.332 289.482 387.182 289.389 387.01 289.33C386.842 289.268 386.652 289.236 386.441 289.236C386.184 289.236 385.955 289.285 385.756 289.383C385.557 289.477 385.389 289.627 385.252 289.834C385.119 290.041 385.018 290.312 384.947 290.648C384.877 290.984 384.842 291.393 384.842 291.873V293.531C384.842 293.914 384.863 294.252 384.906 294.545C384.953 294.838 385.021 295.092 385.111 295.307C385.201 295.518 385.311 295.691 385.439 295.828C385.568 295.965 385.717 296.066 385.885 296.133C386.057 296.195 386.246 296.227 386.453 296.227C386.719 296.227 386.951 296.176 387.15 296.074C387.35 295.973 387.516 295.814 387.648 295.6C387.785 295.381 387.887 295.102 387.953 294.762C388.02 294.418 388.053 294.008 388.053 293.531ZM396.127 296.109V297H390.543V296.221L393.338 293.109C393.682 292.727 393.947 292.402 394.135 292.137C394.326 291.867 394.459 291.627 394.533 291.416C394.611 291.201 394.65 290.982 394.65 290.76C394.65 290.479 394.592 290.225 394.475 289.998C394.361 289.768 394.193 289.584 393.971 289.447C393.748 289.311 393.479 289.242 393.162 289.242C392.783 289.242 392.467 289.316 392.213 289.465C391.963 289.609 391.775 289.812 391.65 290.074C391.525 290.336 391.463 290.637 391.463 290.977H390.379C390.379 290.496 390.484 290.057 390.695 289.658C390.906 289.26 391.219 288.943 391.633 288.709C392.047 288.471 392.557 288.352 393.162 288.352C393.701 288.352 394.162 288.447 394.545 288.639C394.928 288.826 395.221 289.092 395.424 289.436C395.631 289.775 395.734 290.174 395.734 290.631C395.734 290.881 395.691 291.135 395.605 291.393C395.523 291.646 395.408 291.9 395.26 292.154C395.115 292.408 394.945 292.658 394.75 292.904C394.559 293.15 394.354 293.393 394.135 293.631L391.85 296.109H396.127ZM402.877 296.109V297H397.293V296.221L400.088 293.109C400.432 292.727 400.697 292.402 400.885 292.137C401.076 291.867 401.209 291.627 401.283 291.416C401.361 291.201 401.4 290.982 401.4 290.76C401.4 290.479 401.342 290.225 401.225 289.998C401.111 289.768 400.943 289.584 400.721 289.447C400.498 289.311 400.229 289.242 399.912 289.242C399.533 289.242 399.217 289.316 398.963 289.465C398.713 289.609 398.525 289.812 398.4 290.074C398.275 290.336 398.213 290.637 398.213 290.977H397.129C397.129 290.496 397.234 290.057 397.445 289.658C397.656 289.26 397.969 288.943 398.383 288.709C398.797 288.471 399.307 288.352 399.912 288.352C400.451 288.352 400.912 288.447 401.295 288.639C401.678 288.826 401.971 289.092 402.174 289.436C402.381 289.775 402.484 290.174 402.484 290.631C402.484 290.881 402.441 291.135 402.355 291.393C402.273 291.646 402.158 291.9 402.01 292.154C401.865 292.408 401.695 292.658 401.5 292.904C401.309 293.15 401.104 293.393 400.885 293.631L398.6 296.109H402.877Z" fill="black"/>
<g clip-path="url(#clip2_1_5)">
<path d="M123.055 270.602H124.086C124.591 270.602 125.008 270.518 125.336 270.352C125.669 270.18 125.917 269.948 126.078 269.656C126.245 269.359 126.328 269.026 126.328 268.656C126.328 268.219 126.255 267.852 126.109 267.555C125.964 267.258 125.745 267.034 125.453 266.883C125.161 266.732 124.792 266.656 124.344 266.656C123.938 266.656 123.578 266.737 123.266 266.898C122.958 267.055 122.716 267.279 122.539 267.57C122.367 267.862 122.281 268.206 122.281 268.602H120.836C120.836 268.023 120.982 267.497 121.273 267.023C121.565 266.549 121.974 266.172 122.5 265.891C123.031 265.609 123.646 265.469 124.344 265.469C125.031 265.469 125.633 265.591 126.148 265.836C126.664 266.076 127.065 266.435 127.352 266.914C127.638 267.388 127.781 267.979 127.781 268.688C127.781 268.974 127.714 269.281 127.578 269.609C127.448 269.932 127.242 270.234 126.961 270.516C126.685 270.797 126.326 271.029 125.883 271.211C125.44 271.388 124.909 271.477 124.289 271.477H123.055V270.602ZM123.055 271.789V270.922H124.289C125.013 270.922 125.612 271.008 126.086 271.18C126.56 271.352 126.932 271.581 127.203 271.867C127.479 272.154 127.672 272.469 127.781 272.812C127.896 273.151 127.953 273.49 127.953 273.828C127.953 274.359 127.862 274.831 127.68 275.242C127.503 275.654 127.25 276.003 126.922 276.289C126.599 276.576 126.219 276.792 125.781 276.938C125.344 277.083 124.867 277.156 124.352 277.156C123.857 277.156 123.391 277.086 122.953 276.945C122.521 276.805 122.138 276.602 121.805 276.336C121.471 276.065 121.211 275.734 121.023 275.344C120.836 274.948 120.742 274.497 120.742 273.992H122.188C122.188 274.388 122.273 274.734 122.445 275.031C122.622 275.328 122.872 275.56 123.195 275.727C123.523 275.888 123.909 275.969 124.352 275.969C124.794 275.969 125.174 275.893 125.492 275.742C125.815 275.586 126.062 275.352 126.234 275.039C126.411 274.727 126.5 274.333 126.5 273.859C126.5 273.385 126.401 272.997 126.203 272.695C126.005 272.388 125.724 272.161 125.359 272.016C125 271.865 124.576 271.789 124.086 271.789H123.055ZM131.414 275.281V276.445C131.414 276.919 131.294 277.419 131.055 277.945C130.815 278.477 130.479 278.919 130.047 279.273L129.227 278.703C129.393 278.474 129.534 278.24 129.648 278C129.763 277.766 129.849 277.521 129.906 277.266C129.969 277.016 130 276.75 130 276.469V275.281H131.414ZM134.93 271.586L133.773 271.289L134.344 265.625H140.18V266.961H135.57L135.227 270.055C135.435 269.935 135.698 269.823 136.016 269.719C136.339 269.615 136.708 269.562 137.125 269.562C137.651 269.562 138.122 269.654 138.539 269.836C138.956 270.013 139.31 270.268 139.602 270.602C139.898 270.935 140.125 271.336 140.281 271.805C140.438 272.273 140.516 272.797 140.516 273.375C140.516 273.922 140.44 274.424 140.289 274.883C140.143 275.341 139.922 275.742 139.625 276.086C139.328 276.424 138.953 276.688 138.5 276.875C138.052 277.062 137.523 277.156 136.914 277.156C136.456 277.156 136.021 277.094 135.609 276.969C135.203 276.839 134.839 276.643 134.516 276.383C134.198 276.117 133.938 275.789 133.734 275.398C133.536 275.003 133.411 274.539 133.359 274.008H134.734C134.797 274.435 134.922 274.794 135.109 275.086C135.297 275.378 135.542 275.599 135.844 275.75C136.151 275.896 136.508 275.969 136.914 275.969C137.258 275.969 137.562 275.909 137.828 275.789C138.094 275.669 138.318 275.497 138.5 275.273C138.682 275.049 138.82 274.779 138.914 274.461C139.013 274.143 139.062 273.786 139.062 273.391C139.062 273.031 139.013 272.698 138.914 272.391C138.815 272.083 138.667 271.815 138.469 271.586C138.276 271.357 138.039 271.18 137.758 271.055C137.477 270.924 137.154 270.859 136.789 270.859C136.305 270.859 135.938 270.924 135.688 271.055C135.443 271.185 135.19 271.362 134.93 271.586ZM147.953 265.625V277H146.445V265.625H147.953ZM154.82 265.625L150.094 270.93L147.438 273.688L147.188 272.078L149.188 269.875L153.008 265.625H154.82ZM153.367 277L149.156 271.453L150.055 270.258L155.164 277H153.367ZM164.648 271.336V275.5C164.508 275.708 164.284 275.943 163.977 276.203C163.669 276.458 163.245 276.682 162.703 276.875C162.167 277.062 161.474 277.156 160.625 277.156C159.932 277.156 159.294 277.036 158.711 276.797C158.133 276.552 157.63 276.198 157.203 275.734C156.781 275.266 156.453 274.698 156.219 274.031C155.99 273.359 155.875 272.599 155.875 271.75V270.867C155.875 270.018 155.974 269.26 156.172 268.594C156.375 267.927 156.672 267.362 157.062 266.898C157.453 266.43 157.932 266.076 158.5 265.836C159.068 265.591 159.719 265.469 160.453 265.469C161.323 265.469 162.049 265.62 162.633 265.922C163.221 266.219 163.68 266.63 164.008 267.156C164.341 267.682 164.555 268.281 164.648 268.953H163.141C163.073 268.542 162.938 268.167 162.734 267.828C162.536 267.49 162.253 267.219 161.883 267.016C161.513 266.807 161.036 266.703 160.453 266.703C159.927 266.703 159.471 266.799 159.086 266.992C158.701 267.185 158.383 267.461 158.133 267.82C157.883 268.18 157.695 268.615 157.57 269.125C157.451 269.635 157.391 270.211 157.391 270.852V271.75C157.391 272.406 157.466 272.992 157.617 273.508C157.773 274.023 157.995 274.464 158.281 274.828C158.568 275.188 158.909 275.461 159.305 275.648C159.706 275.836 160.148 275.93 160.633 275.93C161.169 275.93 161.604 275.885 161.938 275.797C162.271 275.703 162.531 275.594 162.719 275.469C162.906 275.339 163.049 275.216 163.148 275.102V272.555H160.516V271.336H164.648Z" fill="black"/>
<path d="M183.386 277.926C183.63 277.824 183.824 277.63 183.926 277.386C183.977 277.266 184.004 277.136 184.006 277.006V271.006C184.006 270.741 183.9 270.486 183.713 270.299C183.525 270.111 183.271 270.006 183.006 270.006C182.741 270.006 182.486 270.111 182.299 270.299C182.111 270.486 182.006 270.741 182.006 271.006V274.596L173.716 266.296C173.623 266.202 173.512 266.128 173.39 266.077C173.269 266.026 173.138 266 173.006 266C172.874 266 172.743 266.026 172.621 266.077C172.499 266.128 172.389 266.202 172.296 266.296C172.202 266.389 172.128 266.499 172.077 266.621C172.026 266.743 172 266.874 172 267.006C172 267.138 172.026 267.269 172.077 267.39C172.128 267.512 172.202 267.623 172.296 267.716L180.596 276.006H177.006C176.741 276.006 176.486 276.111 176.299 276.299C176.111 276.486 176.006 276.741 176.006 277.006C176.006 277.271 176.111 277.525 176.299 277.713C176.486 277.9 176.741 278.006 177.006 278.006H183.006C183.136 278.004 183.266 277.977 183.386 277.926Z" fill="#970C0C"/>
</g>
<g filter="url(#filter2_d_1_5)">
<rect x="12" y="328" width="404" height="108" rx="12" fill="#F4E8DE"/>
<rect x="12.5" y="328.5" width="403" height="107" rx="11.5" stroke="#A77C5D"/>
</g>
<rect x="36.5" y="352.5" width="59" height="59" rx="23.5" fill="#C4C4C4" stroke="#A77C5D"/>
<path fill-rule="evenodd" clip-rule="evenodd" d="M83.0216 378.868C82.4827 379.443 82 380.428 82 382C82 383.105 81.1046 384 80 384C78.8954 384 78 383.105 78 382C78 379.572 78.7673 377.557 80.1034 376.132C81.43 374.717 83.2134 374 85 374C86.7866 374 88.57 374.717 89.8966 376.132C91.2327 377.557 92 379.572 92 382C92 383.105 91.1046 384 90 384C88.8954 384 88 383.105 88 382C88 380.428 87.5173 379.443 86.9784 378.868C86.43 378.283 85.7134 378 85 378C84.2866 378 83.57 378.283 83.0216 378.868Z" fill="#970C0C"/>
<path fill-rule="evenodd" clip-rule="evenodd" d="M78 392.583C80.4895 389.763 82 386.058 82 382V366L77.3137 370.686C74.4183 367.791 70.4183 366 66 366C61.5817 366 57.5817 367.791 54.6863 370.686L50 366V382C50 386.058 51.5105 389.763 54 392.583V396C54 397.105 54.8954 398 56 398C57.1046 398 58 397.105 58 396V395.859C58.64 396.23 59.308 396.557 60 396.837V400C60 401.105 60.8954 402 62 402C63.1046 402 64 401.105 64 400V397.876C64.6552 397.958 65.3227 398 66 398C66.6773 398 67.3448 397.958 68 397.876V400C68 401.105 68.8954 402 70 402C71.1046 402 72 401.105 72 400V396.837C72.692 396.557 73.36 396.23 74 395.859V396C74 397.105 74.8954 398 76 398C77.1046 398 78 397.105 78 396V392.583Z" fill="#970C0C"/>
<circle cx="58" cy="376" r="2" fill="#C4C4C4"/>
<circle cx="74" cy="376" r="2" fill="#C4C4C4"/>
<path fill-rule="evenodd" clip-rule="evenodd" d="M69 376C68.4477 376 68 376.448 68 377C68 377.729 67.7367 378.202 67.3981 378.503C67.0412 378.82 66.5369 379 66 379C65.4631 379 64.9588 378.82 64.6019 378.503C64.2633 378.202 64 377.729 64 377C64 376.448 63.5523 376 63 376C62.4477 376 62 376.448 62 377C62 378.271 62.4867 379.298 63.2731 379.997C64.0412 380.68 65.0369 381 66 381C66.9631 381 67.9588 380.68 68.7269 379.997C69.5133 379.298 70 378.271 70 377C70 376.448 69.5523 376 69 376Z" fill="#C4C4C4"/>
<path d="M128.297 358.449L122.648 374H120.34L126.844 356.938H128.332L128.297 358.449ZM133.031 374L127.371 358.449L127.336 356.938H128.824L135.352 374H133.031ZM132.738 367.684V369.535H123.152V367.684H132.738ZM139.477 363.758V378.875H137.297V361.32H139.289L139.477 363.758ZM148.02 367.555V367.801C148.02 368.723 147.91 369.578 147.691 370.367C147.473 371.148 147.152 371.828 146.73 372.406C146.316 372.984 145.805 373.434 145.195 373.754C144.586 374.074 143.887 374.234 143.098 374.234C142.293 374.234 141.582 374.102 140.965 373.836C140.348 373.57 139.824 373.184 139.395 372.676C138.965 372.168 138.621 371.559 138.363 370.848C138.113 370.137 137.941 369.336 137.848 368.445V367.133C137.941 366.195 138.117 365.355 138.375 364.613C138.633 363.871 138.973 363.238 139.395 362.715C139.824 362.184 140.344 361.781 140.953 361.508C141.562 361.227 142.266 361.086 143.062 361.086C143.859 361.086 144.566 361.242 145.184 361.555C145.801 361.859 146.32 362.297 146.742 362.867C147.164 363.438 147.48 364.121 147.691 364.918C147.91 365.707 148.02 366.586 148.02 367.555ZM145.84 367.801V367.555C145.84 366.922 145.773 366.328 145.641 365.773C145.508 365.211 145.301 364.719 145.02 364.297C144.746 363.867 144.395 363.531 143.965 363.289C143.535 363.039 143.023 362.914 142.43 362.914C141.883 362.914 141.406 363.008 141 363.195C140.602 363.383 140.262 363.637 139.98 363.957C139.699 364.27 139.469 364.629 139.289 365.035C139.117 365.434 138.988 365.848 138.902 366.277V369.312C139.059 369.859 139.277 370.375 139.559 370.859C139.84 371.336 140.215 371.723 140.684 372.02C141.152 372.309 141.742 372.453 142.453 372.453C143.039 372.453 143.543 372.332 143.965 372.09C144.395 371.84 144.746 371.5 145.02 371.07C145.301 370.641 145.508 370.148 145.641 369.594C145.773 369.031 145.84 368.434 145.84 367.801ZM150.211 367.801V367.531C150.211 366.617 150.344 365.77 150.609 364.988C150.875 364.199 151.258 363.516 151.758 362.938C152.258 362.352 152.863 361.898 153.574 361.578C154.285 361.25 155.082 361.086 155.965 361.086C156.855 361.086 157.656 361.25 158.367 361.578C159.086 361.898 159.695 362.352 160.195 362.938C160.703 363.516 161.09 364.199 161.355 364.988C161.621 365.77 161.754 366.617 161.754 367.531V367.801C161.754 368.715 161.621 369.562 161.355 370.344C161.09 371.125 160.703 371.809 160.195 372.395C159.695 372.973 159.09 373.426 158.379 373.754C157.676 374.074 156.879 374.234 155.988 374.234C155.098 374.234 154.297 374.074 153.586 373.754C152.875 373.426 152.266 372.973 151.758 372.395C151.258 371.809 150.875 371.125 150.609 370.344C150.344 369.562 150.211 368.715 150.211 367.801ZM152.379 367.531V367.801C152.379 368.434 152.453 369.031 152.602 369.594C152.75 370.148 152.973 370.641 153.27 371.07C153.574 371.5 153.953 371.84 154.406 372.09C154.859 372.332 155.387 372.453 155.988 372.453C156.582 372.453 157.102 372.332 157.547 372.09C158 371.84 158.375 371.5 158.672 371.07C158.969 370.641 159.191 370.148 159.34 369.594C159.496 369.031 159.574 368.434 159.574 367.801V367.531C159.574 366.906 159.496 366.316 159.34 365.762C159.191 365.199 158.965 364.703 158.66 364.273C158.363 363.836 157.988 363.492 157.535 363.242C157.09 362.992 156.566 362.867 155.965 362.867C155.371 362.867 154.848 362.992 154.395 363.242C153.949 363.492 153.574 363.836 153.27 364.273C152.973 364.703 152.75 365.199 152.602 365.762C152.453 366.316 152.379 366.906 152.379 367.531ZM167.707 374H165.539V359.984C165.539 359.07 165.703 358.301 166.031 357.676C166.367 357.043 166.848 356.566 167.473 356.246C168.098 355.918 168.84 355.754 169.699 355.754C169.949 355.754 170.199 355.77 170.449 355.801C170.707 355.832 170.957 355.879 171.199 355.941L171.082 357.711C170.918 357.672 170.73 357.645 170.52 357.629C170.316 357.613 170.113 357.605 169.91 357.605C169.449 357.605 169.051 357.699 168.715 357.887C168.387 358.066 168.137 358.332 167.965 358.684C167.793 359.035 167.707 359.469 167.707 359.984V374ZM170.402 361.32V362.984H163.535V361.32H170.402ZM177.797 374.234C176.914 374.234 176.113 374.086 175.395 373.789C174.684 373.484 174.07 373.059 173.555 372.512C173.047 371.965 172.656 371.316 172.383 370.566C172.109 369.816 171.973 368.996 171.973 368.105V367.613C171.973 366.582 172.125 365.664 172.43 364.859C172.734 364.047 173.148 363.359 173.672 362.797C174.195 362.234 174.789 361.809 175.453 361.52C176.117 361.23 176.805 361.086 177.516 361.086C178.422 361.086 179.203 361.242 179.859 361.555C180.523 361.867 181.066 362.305 181.488 362.867C181.91 363.422 182.223 364.078 182.426 364.836C182.629 365.586 182.73 366.406 182.73 367.297V368.27H173.262V366.5H180.562V366.336C180.531 365.773 180.414 365.227 180.211 364.695C180.016 364.164 179.703 363.727 179.273 363.383C178.844 363.039 178.258 362.867 177.516 362.867C177.023 362.867 176.57 362.973 176.156 363.184C175.742 363.387 175.387 363.691 175.09 364.098C174.793 364.504 174.562 365 174.398 365.586C174.234 366.172 174.152 366.848 174.152 367.613V368.105C174.152 368.707 174.234 369.273 174.398 369.805C174.57 370.328 174.816 370.789 175.137 371.188C175.465 371.586 175.859 371.898 176.32 372.125C176.789 372.352 177.32 372.465 177.914 372.465C178.68 372.465 179.328 372.309 179.859 371.996C180.391 371.684 180.855 371.266 181.254 370.742L182.566 371.785C182.293 372.199 181.945 372.594 181.523 372.969C181.102 373.344 180.582 373.648 179.965 373.883C179.355 374.117 178.633 374.234 177.797 374.234ZM187.418 363.84V374H185.238V361.32H187.301L187.418 363.84ZM186.973 367.18L185.965 367.145C185.973 366.277 186.086 365.477 186.305 364.742C186.523 364 186.848 363.355 187.277 362.809C187.707 362.262 188.242 361.84 188.883 361.543C189.523 361.238 190.266 361.086 191.109 361.086C191.703 361.086 192.25 361.172 192.75 361.344C193.25 361.508 193.684 361.77 194.051 362.129C194.418 362.488 194.703 362.949 194.906 363.512C195.109 364.074 195.211 364.754 195.211 365.551V374H193.043V365.656C193.043 364.992 192.93 364.461 192.703 364.062C192.484 363.664 192.172 363.375 191.766 363.195C191.359 363.008 190.883 362.914 190.336 362.914C189.695 362.914 189.16 363.027 188.73 363.254C188.301 363.48 187.957 363.793 187.699 364.191C187.441 364.59 187.254 365.047 187.137 365.562C187.027 366.07 186.973 366.609 186.973 367.18ZM195.188 365.984L193.734 366.43C193.742 365.734 193.855 365.066 194.074 364.426C194.301 363.785 194.625 363.215 195.047 362.715C195.477 362.215 196.004 361.82 196.629 361.531C197.254 361.234 197.969 361.086 198.773 361.086C199.453 361.086 200.055 361.176 200.578 361.355C201.109 361.535 201.555 361.812 201.914 362.188C202.281 362.555 202.559 363.027 202.746 363.605C202.934 364.184 203.027 364.871 203.027 365.668V374H200.848V365.645C200.848 364.934 200.734 364.383 200.508 363.992C200.289 363.594 199.977 363.316 199.57 363.16C199.172 362.996 198.695 362.914 198.141 362.914C197.664 362.914 197.242 362.996 196.875 363.16C196.508 363.324 196.199 363.551 195.949 363.84C195.699 364.121 195.508 364.445 195.375 364.812C195.25 365.18 195.188 365.57 195.188 365.984Z" fill="#332317"/>
<path d="M349.064 416.055V417.355C349.064 418.055 349.002 418.645 348.877 419.125C348.752 419.605 348.572 419.992 348.338 420.285C348.104 420.578 347.82 420.791 347.488 420.924C347.16 421.053 346.789 421.117 346.375 421.117C346.047 421.117 345.744 421.076 345.467 420.994C345.189 420.912 344.939 420.781 344.717 420.602C344.498 420.418 344.311 420.18 344.154 419.887C343.998 419.594 343.879 419.238 343.797 418.82C343.715 418.402 343.674 417.914 343.674 417.355V416.055C343.674 415.355 343.736 414.77 343.861 414.297C343.99 413.824 344.172 413.445 344.406 413.16C344.641 412.871 344.922 412.664 345.25 412.539C345.582 412.414 345.953 412.352 346.363 412.352C346.695 412.352 347 412.393 347.277 412.475C347.559 412.553 347.809 412.68 348.027 412.855C348.246 413.027 348.432 413.258 348.584 413.547C348.74 413.832 348.859 414.182 348.941 414.596C349.023 415.01 349.064 415.496 349.064 416.055ZM347.975 417.531V415.873C347.975 415.49 347.951 415.154 347.904 414.865C347.861 414.572 347.797 414.322 347.711 414.115C347.625 413.908 347.516 413.74 347.383 413.611C347.254 413.482 347.104 413.389 346.932 413.33C346.764 413.268 346.574 413.236 346.363 413.236C346.105 413.236 345.877 413.285 345.678 413.383C345.479 413.477 345.311 413.627 345.174 413.834C345.041 414.041 344.939 414.312 344.869 414.648C344.799 414.984 344.764 415.393 344.764 415.873V417.531C344.764 417.914 344.785 418.252 344.828 418.545C344.875 418.838 344.943 419.092 345.033 419.307C345.123 419.518 345.232 419.691 345.361 419.828C345.49 419.965 345.639 420.066 345.807 420.133C345.979 420.195 346.168 420.227 346.375 420.227C346.641 420.227 346.873 420.176 347.072 420.074C347.271 419.973 347.438 419.814 347.57 419.6C347.707 419.381 347.809 419.102 347.875 418.762C347.941 418.418 347.975 418.008 347.975 417.531ZM355.838 418.691C355.838 419.211 355.717 419.652 355.475 420.016C355.236 420.375 354.912 420.648 354.502 420.836C354.096 421.023 353.637 421.117 353.125 421.117C352.613 421.117 352.152 421.023 351.742 420.836C351.332 420.648 351.008 420.375 350.77 420.016C350.531 419.652 350.412 419.211 350.412 418.691C350.412 418.352 350.477 418.041 350.605 417.76C350.738 417.475 350.924 417.227 351.162 417.016C351.404 416.805 351.689 416.643 352.018 416.529C352.35 416.412 352.715 416.354 353.113 416.354C353.637 416.354 354.104 416.455 354.514 416.658C354.924 416.857 355.246 417.133 355.48 417.484C355.719 417.836 355.838 418.238 355.838 418.691ZM354.748 418.668C354.748 418.352 354.68 418.072 354.543 417.83C354.406 417.584 354.215 417.393 353.969 417.256C353.723 417.119 353.438 417.051 353.113 417.051C352.781 417.051 352.494 417.119 352.252 417.256C352.014 417.393 351.828 417.584 351.695 417.83C351.562 418.072 351.496 418.352 351.496 418.668C351.496 418.996 351.561 419.277 351.689 419.512C351.822 419.742 352.01 419.92 352.252 420.045C352.498 420.166 352.789 420.227 353.125 420.227C353.461 420.227 353.75 420.166 353.992 420.045C354.234 419.92 354.42 419.742 354.549 419.512C354.682 419.277 354.748 418.996 354.748 418.668ZM355.639 414.689C355.639 415.104 355.529 415.477 355.311 415.809C355.092 416.141 354.793 416.402 354.414 416.594C354.035 416.785 353.605 416.881 353.125 416.881C352.637 416.881 352.201 416.785 351.818 416.594C351.439 416.402 351.143 416.141 350.928 415.809C350.713 415.477 350.605 415.104 350.605 414.689C350.605 414.193 350.713 413.771 350.928 413.424C351.146 413.076 351.445 412.811 351.824 412.627C352.203 412.443 352.635 412.352 353.119 412.352C353.607 412.352 354.041 412.443 354.42 412.627C354.799 412.811 355.096 413.076 355.311 413.424C355.529 413.771 355.639 414.193 355.639 414.689ZM354.555 414.707C354.555 414.422 354.494 414.17 354.373 413.951C354.252 413.732 354.084 413.561 353.869 413.436C353.654 413.307 353.404 413.242 353.119 413.242C352.834 413.242 352.584 413.303 352.369 413.424C352.158 413.541 351.992 413.709 351.871 413.928C351.754 414.146 351.695 414.406 351.695 414.707C351.695 415 351.754 415.256 351.871 415.475C351.992 415.693 352.16 415.863 352.375 415.984C352.59 416.105 352.84 416.166 353.125 416.166C353.41 416.166 353.658 416.105 353.869 415.984C354.084 415.863 354.252 415.693 354.373 415.475C354.494 415.256 354.555 415 354.555 414.707ZM357.344 420.426C357.344 420.242 357.4 420.088 357.514 419.963C357.631 419.834 357.799 419.77 358.018 419.77C358.236 419.77 358.402 419.834 358.516 419.963C358.633 420.088 358.691 420.242 358.691 420.426C358.691 420.605 358.633 420.758 358.516 420.883C358.402 421.008 358.236 421.07 358.018 421.07C357.799 421.07 357.631 421.008 357.514 420.883C357.4 420.758 357.344 420.605 357.344 420.426ZM365.729 416.055V417.355C365.729 418.055 365.666 418.645 365.541 419.125C365.416 419.605 365.236 419.992 365.002 420.285C364.768 420.578 364.484 420.791 364.152 420.924C363.824 421.053 363.453 421.117 363.039 421.117C362.711 421.117 362.408 421.076 362.131 420.994C361.854 420.912 361.604 420.781 361.381 420.602C361.162 420.418 360.975 420.18 360.818 419.887C360.662 419.594 360.543 419.238 360.461 418.82C360.379 418.402 360.338 417.914 360.338 417.355V416.055C360.338 415.355 360.4 414.77 360.525 414.297C360.654 413.824 360.836 413.445 361.07 413.16C361.305 412.871 361.586 412.664 361.914 412.539C362.246 412.414 362.617 412.352 363.027 412.352C363.359 412.352 363.664 412.393 363.941 412.475C364.223 412.553 364.473 412.68 364.691 412.855C364.91 413.027 365.096 413.258 365.248 413.547C365.404 413.832 365.523 414.182 365.605 414.596C365.688 415.01 365.729 415.496 365.729 416.055ZM364.639 417.531V415.873C364.639 415.49 364.615 415.154 364.568 414.865C364.525 414.572 364.461 414.322 364.375 414.115C364.289 413.908 364.18 413.74 364.047 413.611C363.918 413.482 363.768 413.389 363.596 413.33C363.428 413.268 363.238 413.236 363.027 413.236C362.77 413.236 362.541 413.285 362.342 413.383C362.143 413.477 361.975 413.627 361.838 413.834C361.705 414.041 361.604 414.312 361.533 414.648C361.463 414.984 361.428 415.393 361.428 415.873V417.531C361.428 417.914 361.449 418.252 361.492 418.545C361.539 418.838 361.607 419.092 361.697 419.307C361.787 419.518 361.896 419.691 362.025 419.828C362.154 419.965 362.303 420.066 362.471 420.133C362.643 420.195 362.832 420.227 363.039 420.227C363.305 420.227 363.537 420.176 363.736 420.074C363.936 419.973 364.102 419.814 364.234 419.6C364.371 419.381 364.473 419.102 364.539 418.762C364.605 418.418 364.639 418.008 364.639 417.531ZM372.889 418.129V419.02H366.725V418.381L370.545 412.469H371.43L370.48 414.18L367.955 418.129H372.889ZM371.699 412.469V421H370.615V412.469H371.699ZM374.008 420.426C374.008 420.242 374.064 420.088 374.178 419.963C374.295 419.834 374.463 419.77 374.682 419.77C374.9 419.77 375.066 419.834 375.18 419.963C375.297 420.088 375.355 420.242 375.355 420.426C375.355 420.605 375.297 420.758 375.18 420.883C375.066 421.008 374.9 421.07 374.682 421.07C374.463 421.07 374.295 421.008 374.178 420.883C374.064 420.758 374.008 420.605 374.008 420.426ZM382.627 420.109V421H377.043V420.221L379.838 417.109C380.182 416.727 380.447 416.402 380.635 416.137C380.826 415.867 380.959 415.627 381.033 415.416C381.111 415.201 381.15 414.982 381.15 414.76C381.15 414.479 381.092 414.225 380.975 413.998C380.861 413.768 380.693 413.584 380.471 413.447C380.248 413.311 379.979 413.242 379.662 413.242C379.283 413.242 378.967 413.316 378.713 413.465C378.463 413.609 378.275 413.812 378.15 414.074C378.025 414.336 377.963 414.637 377.963 414.977H376.879C376.879 414.496 376.984 414.057 377.195 413.658C377.406 413.26 377.719 412.943 378.133 412.709C378.547 412.471 379.057 412.352 379.662 412.352C380.201 412.352 380.662 412.447 381.045 412.639C381.428 412.826 381.721 413.092 381.924 413.436C382.131 413.775 382.234 414.174 382.234 414.631C382.234 414.881 382.191 415.135 382.105 415.393C382.023 415.646 381.908 415.9 381.76 416.154C381.615 416.408 381.445 416.658 381.25 416.904C381.059 417.15 380.854 417.393 380.635 417.631L378.35 420.109H382.627ZM389.143 416.055V417.355C389.143 418.055 389.08 418.645 388.955 419.125C388.83 419.605 388.65 419.992 388.416 420.285C388.182 420.578 387.898 420.791 387.566 420.924C387.238 421.053 386.867 421.117 386.453 421.117C386.125 421.117 385.822 421.076 385.545 420.994C385.268 420.912 385.018 420.781 384.795 420.602C384.576 420.418 384.389 420.18 384.232 419.887C384.076 419.594 383.957 419.238 383.875 418.82C383.793 418.402 383.752 417.914 383.752 417.355V416.055C383.752 415.355 383.814 414.77 383.939 414.297C384.068 413.824 384.25 413.445 384.484 413.16C384.719 412.871 385 412.664 385.328 412.539C385.66 412.414 386.031 412.352 386.441 412.352C386.773 412.352 387.078 412.393 387.355 412.475C387.637 412.553 387.887 412.68 388.105 412.855C388.324 413.027 388.51 413.258 388.662 413.547C388.818 413.832 388.938 414.182 389.02 414.596C389.102 415.01 389.143 415.496 389.143 416.055ZM388.053 417.531V415.873C388.053 415.49 388.029 415.154 387.982 414.865C387.939 414.572 387.875 414.322 387.789 414.115C387.703 413.908 387.594 413.74 387.461 413.611C387.332 413.482 387.182 413.389 387.01 413.33C386.842 413.268 386.652 413.236 386.441 413.236C386.184 413.236 385.955 413.285 385.756 413.383C385.557 413.477 385.389 413.627 385.252 413.834C385.119 414.041 385.018 414.312 384.947 414.648C384.877 414.984 384.842 415.393 384.842 415.873V417.531C384.842 417.914 384.863 418.252 384.906 418.545C384.953 418.838 385.021 419.092 385.111 419.307C385.201 419.518 385.311 419.691 385.439 419.828C385.568 419.965 385.717 420.066 385.885 420.133C386.057 420.195 386.246 420.227 386.453 420.227C386.719 420.227 386.951 420.176 387.15 420.074C387.35 419.973 387.516 419.814 387.648 419.6C387.785 419.381 387.887 419.102 387.953 418.762C388.02 418.418 388.053 418.008 388.053 417.531ZM396.127 420.109V421H390.543V420.221L393.338 417.109C393.682 416.727 393.947 416.402 394.135 416.137C394.326 415.867 394.459 415.627 394.533 415.416C394.611 415.201 394.65 414.982 394.65 414.76C394.65 414.479 394.592 414.225 394.475 413.998C394.361 413.768 394.193 413.584 393.971 413.447C393.748 413.311 393.479 413.242 393.162 413.242C392.783 413.242 392.467 413.316 392.213 413.465C391.963 413.609 391.775 413.812 391.65 414.074C391.525 414.336 391.463 414.637 391.463 414.977H390.379C390.379 414.496 390.484 414.057 390.695 413.658C390.906 413.26 391.219 412.943 391.633 412.709C392.047 412.471 392.557 412.352 393.162 412.352C393.701 412.352 394.162 412.447 394.545 412.639C394.928 412.826 395.221 413.092 395.424 413.436C395.631 413.775 395.734 414.174 395.734 414.631C395.734 414.881 395.691 415.135 395.605 415.393C395.523 415.646 395.408 415.9 395.26 416.154C395.115 416.408 394.945 416.658 394.75 416.904C394.559 417.15 394.354 417.393 394.135 417.631L391.85 420.109H396.127ZM402.877 420.109V421H397.293V420.221L400.088 417.109C400.432 416.727 400.697 416.402 400.885 416.137C401.076 415.867 401.209 415.627 401.283 415.416C401.361 415.201 401.4 414.982 401.4 414.76C401.4 414.479 401.342 414.225 401.225 413.998C401.111 413.768 400.943 413.584 400.721 413.447C400.498 413.311 400.229 413.242 399.912 413.242C399.533 413.242 399.217 413.316 398.963 413.465C398.713 413.609 398.525 413.812 398.4 414.074C398.275 414.336 398.213 414.637 398.213 414.977H397.129C397.129 414.496 397.234 414.057 397.445 413.658C397.656 413.26 397.969 412.943 398.383 412.709C398.797 412.471 399.307 412.352 399.912 412.352C400.451 412.352 400.912 412.447 401.295 412.639C401.678 412.826 401.971 413.092 402.174 413.436C402.381 413.775 402.484 414.174 402.484 414.631C402.484 414.881 402.441 415.135 402.355 415.393C402.273 415.646 402.158 415.9 402.01 416.154C401.865 416.408 401.695 416.658 401.5 416.904C401.309 417.15 401.104 417.393 400.885 417.631L398.6 420.109H402.877Z" fill="black"/>
<g clip-path="url(#clip3_1_5)">
<path d="M123.055 394.602H124.086C124.591 394.602 125.008 394.518 125.336 394.352C125.669 394.18 125.917 393.948 126.078 393.656C126.245 393.359 126.328 393.026 126.328 392.656C126.328 392.219 126.255 391.852 126.109 391.555C125.964 391.258 125.745 391.034 125.453 390.883C125.161 390.732 124.792 390.656 124.344 390.656C123.938 390.656 123.578 390.737 123.266 390.898C122.958 391.055 122.716 391.279 122.539 391.57C122.367 391.862 122.281 392.206 122.281 392.602H120.836C120.836 392.023 120.982 391.497 121.273 391.023C121.565 390.549 121.974 390.172 122.5 389.891C123.031 389.609 123.646 389.469 124.344 389.469C125.031 389.469 125.633 389.591 126.148 389.836C126.664 390.076 127.065 390.435 127.352 390.914C127.638 391.388 127.781 391.979 127.781 392.688C127.781 392.974 127.714 393.281 127.578 393.609C127.448 393.932 127.242 394.234 126.961 394.516C126.685 394.797 126.326 395.029 125.883 395.211C125.44 395.388 124.909 395.477 124.289 395.477H123.055V394.602ZM123.055 395.789V394.922H124.289C125.013 394.922 125.612 395.008 126.086 395.18C126.56 395.352 126.932 395.581 127.203 395.867C127.479 396.154 127.672 396.469 127.781 396.812C127.896 397.151 127.953 397.49 127.953 397.828C127.953 398.359 127.862 398.831 127.68 399.242C127.503 399.654 127.25 400.003 126.922 400.289C126.599 400.576 126.219 400.792 125.781 400.938C125.344 401.083 124.867 401.156 124.352 401.156C123.857 401.156 123.391 401.086 122.953 400.945C122.521 400.805 122.138 400.602 121.805 400.336C121.471 400.065 121.211 399.734 121.023 399.344C120.836 398.948 120.742 398.497 120.742 397.992H122.188C122.188 398.388 122.273 398.734 122.445 399.031C122.622 399.328 122.872 399.56 123.195 399.727C123.523 399.888 123.909 399.969 124.352 399.969C124.794 399.969 125.174 399.893 125.492 399.742C125.815 399.586 126.062 399.352 126.234 399.039C126.411 398.727 126.5 398.333 126.5 397.859C126.5 397.385 126.401 396.997 126.203 396.695C126.005 396.388 125.724 396.161 125.359 396.016C125 395.865 124.576 395.789 124.086 395.789H123.055ZM131.414 399.281V400.445C131.414 400.919 131.294 401.419 131.055 401.945C130.815 402.477 130.479 402.919 130.047 403.273L129.227 402.703C129.393 402.474 129.534 402.24 129.648 402C129.763 401.766 129.849 401.521 129.906 401.266C129.969 401.016 130 400.75 130 400.469V399.281H131.414ZM134.93 395.586L133.773 395.289L134.344 389.625H140.18V390.961H135.57L135.227 394.055C135.435 393.935 135.698 393.823 136.016 393.719C136.339 393.615 136.708 393.562 137.125 393.562C137.651 393.562 138.122 393.654 138.539 393.836C138.956 394.013 139.31 394.268 139.602 394.602C139.898 394.935 140.125 395.336 140.281 395.805C140.438 396.273 140.516 396.797 140.516 397.375C140.516 397.922 140.44 398.424 140.289 398.883C140.143 399.341 139.922 399.742 139.625 400.086C139.328 400.424 138.953 400.688 138.5 400.875C138.052 401.062 137.523 401.156 136.914 401.156C136.456 401.156 136.021 401.094 135.609 400.969C135.203 400.839 134.839 400.643 134.516 400.383C134.198 400.117 133.938 399.789 133.734 399.398C133.536 399.003 133.411 398.539 133.359 398.008H134.734C134.797 398.435 134.922 398.794 135.109 399.086C135.297 399.378 135.542 399.599 135.844 399.75C136.151 399.896 136.508 399.969 136.914 399.969C137.258 399.969 137.562 399.909 137.828 399.789C138.094 399.669 138.318 399.497 138.5 399.273C138.682 399.049 138.82 398.779 138.914 398.461C139.013 398.143 139.062 397.786 139.062 397.391C139.062 397.031 139.013 396.698 138.914 396.391C138.815 396.083 138.667 395.815 138.469 395.586C138.276 395.357 138.039 395.18 137.758 395.055C137.477 394.924 137.154 394.859 136.789 394.859C136.305 394.859 135.938 394.924 135.688 395.055C135.443 395.185 135.19 395.362 134.93 395.586ZM147.953 389.625V401H146.445V389.625H147.953ZM154.82 389.625L150.094 394.93L147.438 397.688L147.188 396.078L149.188 393.875L153.008 389.625H154.82ZM153.367 401L149.156 395.453L150.055 394.258L155.164 401H153.367ZM164.648 395.336V399.5C164.508 399.708 164.284 399.943 163.977 400.203C163.669 400.458 163.245 400.682 162.703 400.875C162.167 401.062 161.474 401.156 160.625 401.156C159.932 401.156 159.294 401.036 158.711 400.797C158.133 400.552 157.63 400.198 157.203 399.734C156.781 399.266 156.453 398.698 156.219 398.031C155.99 397.359 155.875 396.599 155.875 395.75V394.867C155.875 394.018 155.974 393.26 156.172 392.594C156.375 391.927 156.672 391.362 157.062 390.898C157.453 390.43 157.932 390.076 158.5 389.836C159.068 389.591 159.719 389.469 160.453 389.469C161.323 389.469 162.049 389.62 162.633 389.922C163.221 390.219 163.68 390.63 164.008 391.156C164.341 391.682 164.555 392.281 164.648 392.953H163.141C163.073 392.542 162.938 392.167 162.734 391.828C162.536 391.49 162.253 391.219 161.883 391.016C161.513 390.807 161.036 390.703 160.453 390.703C159.927 390.703 159.471 390.799 159.086 390.992C158.701 391.185 158.383 391.461 158.133 391.82C157.883 392.18 157.695 392.615 157.57 393.125C157.451 393.635 157.391 394.211 157.391 394.852V395.75C157.391 396.406 157.466 396.992 157.617 397.508C157.773 398.023 157.995 398.464 158.281 398.828C158.568 399.188 158.909 399.461 159.305 399.648C159.706 399.836 160.148 399.93 160.633 399.93C161.169 399.93 161.604 399.885 161.938 399.797C162.271 399.703 162.531 399.594 162.719 399.469C162.906 399.339 163.049 399.216 163.148 399.102V396.555H160.516V395.336H164.648Z" fill="black"/>
<path d="M183.386 401.926C183.63 401.824 183.824 401.63 183.926 401.386C183.977 401.266 184.004 401.136 184.006 401.006V395.006C184.006 394.741 183.9 394.486 183.713 394.299C183.525 394.111 183.271 394.006 183.006 394.006C182.741 394.006 182.486 394.111 182.299 394.299C182.111 394.486 182.006 394.741 182.006 395.006V398.596L173.716 390.296C173.623 390.202 173.512 390.128 173.39 390.077C173.269 390.026 173.138 390 173.006 390C172.874 390 172.743 390.026 172.621 390.077C172.499 390.128 172.389 390.202 172.296 390.296C172.202 390.389 172.128 390.499 172.077 390.621C172.026 390.743 172 390.874 172 391.006C172 391.138 172.026 391.269 172.077 391.39C172.128 391.512 172.202 391.623 172.296 391.716L180.596 400.006H177.006C176.741 400.006 176.486 400.111 176.299 400.299C176.111 400.486 176.006 400.741 176.006 401.006C176.006 401.271 176.111 401.525 176.299 401.713C176.486 401.9 176.741 402.006 177.006 402.006H183.006C183.136 402.004 183.266 401.977 183.386 401.926Z" fill="#970C0C"/>
</g>
<g filter="url(#filter3_d_1_5)">
<rect width="428" height="56" fill="#A77C5D"/>
</g>
<path d="M54.4688 30.8438L57.8555 18.9375H59.4961L58.5469 23.5664L54.9023 36H53.2734L54.4688 30.8438ZM50.9648 18.9375L53.6602 30.6094L54.4688 36H52.8516L48.7148 18.9375H50.9648ZM63.8789 30.5977L66.5156 18.9375H68.7773L64.6523 36H63.0352L63.8789 30.5977ZM59.7422 18.9375L63.0352 30.8438L64.2305 36H62.6016L59.0859 23.5664L58.125 18.9375H59.7422ZM75.8438 36.2344C74.9609 36.2344 74.1602 36.0859 73.4414 35.7891C72.7305 35.4844 72.1172 35.0586 71.6016 34.5117C71.0938 33.9648 70.7031 33.3164 70.4297 32.5664C70.1562 31.8164 70.0195 30.9961 70.0195 30.1055V29.6133C70.0195 28.582 70.1719 27.6641 70.4766 26.8594C70.7812 26.0469 71.1953 25.3594 71.7188 24.7969C72.2422 24.2344 72.8359 23.8086 73.5 23.5195C74.1641 23.2305 74.8516 23.0859 75.5625 23.0859C76.4688 23.0859 77.25 23.2422 77.9062 23.5547C78.5703 23.8672 79.1133 24.3047 79.5352 24.8672C79.957 25.4219 80.2695 26.0781 80.4727 26.8359C80.6758 27.5859 80.7773 28.4062 80.7773 29.2969V30.2695H71.3086V28.5H78.6094V28.3359C78.5781 27.7734 78.4609 27.2266 78.2578 26.6953C78.0625 26.1641 77.75 25.7266 77.3203 25.3828C76.8906 25.0391 76.3047 24.8672 75.5625 24.8672C75.0703 24.8672 74.6172 24.9727 74.2031 25.1836C73.7891 25.3867 73.4336 25.6914 73.1367 26.0977C72.8398 26.5039 72.6094 27 72.4453 27.5859C72.2812 28.1719 72.1992 28.8477 72.1992 29.6133V30.1055C72.1992 30.707 72.2812 31.2734 72.4453 31.8047C72.6172 32.3281 72.8633 32.7891 73.1836 33.1875C73.5117 33.5859 73.9062 33.8984 74.3672 34.125C74.8359 34.3516 75.3672 34.4648 75.9609 34.4648C76.7266 34.4648 77.375 34.3086 77.9062 33.9961C78.4375 33.6836 78.9023 33.2656 79.3008 32.7422L80.6133 33.7852C80.3398 34.1992 79.9922 34.5938 79.5703 34.9688C79.1484 35.3438 78.6289 35.6484 78.0117 35.8828C77.4023 36.1172 76.6797 36.2344 75.8438 36.2344ZM85.6641 23.3203V36H83.4844V23.3203H85.6641ZM83.3203 19.957C83.3203 19.6055 83.4258 19.3086 83.6367 19.0664C83.8555 18.8242 84.1758 18.7031 84.5977 18.7031C85.0117 18.7031 85.3281 18.8242 85.5469 19.0664C85.7734 19.3086 85.8867 19.6055 85.8867 19.957C85.8867 20.293 85.7734 20.582 85.5469 20.8242C85.3281 21.0586 85.0117 21.1758 84.5977 21.1758C84.1758 21.1758 83.8555 21.0586 83.6367 20.8242C83.4258 20.582 83.3203 20.293 83.3203 19.957ZM97.3594 23.3203H99.3281V35.7305C99.3281 36.8477 99.1016 37.8008 98.6484 38.5898C98.1953 39.3789 97.5625 39.9766 96.75 40.3828C95.9453 40.7969 95.0156 41.0039 93.9609 41.0039C93.5234 41.0039 93.0078 40.9336 92.4141 40.793C91.8281 40.6602 91.25 40.4297 90.6797 40.1016C90.1172 39.7812 89.6445 39.3477 89.2617 38.8008L90.3984 37.5117C90.9297 38.1523 91.4844 38.5977 92.0625 38.8477C92.6484 39.0977 93.2266 39.2227 93.7969 39.2227C94.4844 39.2227 95.0781 39.0938 95.5781 38.8359C96.0781 38.5781 96.4648 38.1953 96.7383 37.6875C97.0195 37.1875 97.1602 36.5703 97.1602 35.8359V26.1094L97.3594 23.3203ZM88.6289 29.8008V29.5547C88.6289 28.5859 88.7422 27.707 88.9688 26.918C89.2031 26.1211 89.5352 25.4375 89.9648 24.8672C90.4023 24.2969 90.9297 23.8594 91.5469 23.5547C92.1641 23.2422 92.8594 23.0859 93.6328 23.0859C94.4297 23.0859 95.125 23.2266 95.7188 23.5078C96.3203 23.7812 96.8281 24.1836 97.2422 24.7148C97.6641 25.2383 97.9961 25.8711 98.2383 26.6133C98.4805 27.3555 98.6484 28.1953 98.7422 29.1328V30.2109C98.6562 31.1406 98.4883 31.9766 98.2383 32.7188C97.9961 33.4609 97.6641 34.0938 97.2422 34.6172C96.8281 35.1406 96.3203 35.543 95.7188 35.8242C95.1172 36.0977 94.4141 36.2344 93.6094 36.2344C92.8516 36.2344 92.1641 36.0742 91.5469 35.7539C90.9375 35.4336 90.4141 34.9844 89.9766 34.4062C89.5391 33.8281 89.2031 33.1484 88.9688 32.3672C88.7422 31.5781 88.6289 30.7227 88.6289 29.8008ZM90.7969 29.5547V29.8008C90.7969 30.4336 90.8594 31.0273 90.9844 31.582C91.1172 32.1367 91.3164 32.625 91.582 33.0469C91.8555 33.4688 92.2031 33.8008 92.625 34.043C93.0469 34.2773 93.5508 34.3945 94.1367 34.3945C94.8555 34.3945 95.4492 34.2422 95.918 33.9375C96.3867 33.6328 96.7578 33.2305 97.0312 32.7305C97.3125 32.2305 97.5312 31.6875 97.6875 31.1016V28.2773C97.6016 27.8477 97.4688 27.4336 97.2891 27.0352C97.1172 26.6289 96.8906 26.2695 96.6094 25.957C96.3359 25.6367 95.9961 25.3828 95.5898 25.1953C95.1836 25.0078 94.707 24.9141 94.1602 24.9141C93.5664 24.9141 93.0547 25.0391 92.625 25.2891C92.2031 25.5312 91.8555 25.8672 91.582 26.2969C91.3164 26.7188 91.1172 27.2109 90.9844 27.7734C90.8594 28.3281 90.7969 28.9219 90.7969 29.5547ZM104.789 18V36H102.621V18H104.789ZM104.273 29.1797L103.371 29.1445C103.379 28.2773 103.508 27.4766 103.758 26.7422C104.008 26 104.359 25.3555 104.812 24.8086C105.266 24.2617 105.805 23.8398 106.43 23.543C107.062 23.2383 107.762 23.0859 108.527 23.0859C109.152 23.0859 109.715 23.1719 110.215 23.3438C110.715 23.5078 111.141 23.7734 111.492 24.1406C111.852 24.5078 112.125 24.9844 112.312 25.5703C112.5 26.1484 112.594 26.8555 112.594 27.6914V36H110.414V27.668C110.414 27.0039 110.316 26.4727 110.121 26.0742C109.926 25.668 109.641 25.375 109.266 25.1953C108.891 25.0078 108.43 24.9141 107.883 24.9141C107.344 24.9141 106.852 25.0273 106.406 25.2539C105.969 25.4805 105.59 25.793 105.27 26.1914C104.957 26.5898 104.711 27.0469 104.531 27.5625C104.359 28.0703 104.273 28.6094 104.273 29.1797ZM121.148 23.3203V24.9844H114.293V23.3203H121.148ZM116.613 20.2383H118.781V32.8594C118.781 33.2891 118.848 33.6133 118.98 33.832C119.113 34.0508 119.285 34.1953 119.496 34.2656C119.707 34.3359 119.934 34.3711 120.176 34.3711C120.355 34.3711 120.543 34.3555 120.738 34.3242C120.941 34.2852 121.094 34.2539 121.195 34.2305L121.207 36C121.035 36.0547 120.809 36.1055 120.527 36.1523C120.254 36.207 119.922 36.2344 119.531 36.2344C119 36.2344 118.512 36.1289 118.066 35.918C117.621 35.707 117.266 35.3555 117 34.8633C116.742 34.3633 116.613 33.6914 116.613 32.8477V20.2383ZM130.688 18.9375H132.879L138.469 32.8477L144.047 18.9375H146.25L139.312 36H137.602L130.688 18.9375ZM129.973 18.9375H131.906L132.223 29.3438V36H129.973V18.9375ZM145.02 18.9375H146.953V36H144.703V29.3438L145.02 18.9375ZM150.023 29.8008V29.5312C150.023 28.6172 150.156 27.7695 150.422 26.9883C150.688 26.1992 151.07 25.5156 151.57 24.9375C152.07 24.3516 152.676 23.8984 153.387 23.5781C154.098 23.25 154.895 23.0859 155.777 23.0859C156.668 23.0859 157.469 23.25 158.18 23.5781C158.898 23.8984 159.508 24.3516 160.008 24.9375C160.516 25.5156 160.902 26.1992 161.168 26.9883C161.434 27.7695 161.566 28.6172 161.566 29.5312V29.8008C161.566 30.7148 161.434 31.5625 161.168 32.3438C160.902 33.125 160.516 33.8086 160.008 34.3945C159.508 34.9727 158.902 35.4258 158.191 35.7539C157.488 36.0742 156.691 36.2344 155.801 36.2344C154.91 36.2344 154.109 36.0742 153.398 35.7539C152.688 35.4258 152.078 34.9727 151.57 34.3945C151.07 33.8086 150.688 33.125 150.422 32.3438C150.156 31.5625 150.023 30.7148 150.023 29.8008ZM152.191 29.5312V29.8008C152.191 30.4336 152.266 31.0312 152.414 31.5938C152.562 32.1484 152.785 32.6406 153.082 33.0703C153.387 33.5 153.766 33.8398 154.219 34.0898C154.672 34.332 155.199 34.4531 155.801 34.4531C156.395 34.4531 156.914 34.332 157.359 34.0898C157.812 33.8398 158.188 33.5 158.484 33.0703C158.781 32.6406 159.004 32.1484 159.152 31.5938C159.309 31.0312 159.387 30.4336 159.387 29.8008V29.5312C159.387 28.9062 159.309 28.3164 159.152 27.7617C159.004 27.1992 158.777 26.7031 158.473 26.2734C158.176 25.8359 157.801 25.4922 157.348 25.2422C156.902 24.9922 156.379 24.8672 155.777 24.8672C155.184 24.8672 154.66 24.9922 154.207 25.2422C153.762 25.4922 153.387 25.8359 153.082 26.2734C152.785 26.7031 152.562 27.1992 152.414 27.7617C152.266 28.3164 152.191 28.9062 152.191 29.5312ZM166.453 26.0273V36H164.285V23.3203H166.336L166.453 26.0273ZM165.938 29.1797L165.035 29.1445C165.043 28.2773 165.172 27.4766 165.422 26.7422C165.672 26 166.023 25.3555 166.477 24.8086C166.93 24.2617 167.469 23.8398 168.094 23.543C168.727 23.2383 169.426 23.0859 170.191 23.0859C170.816 23.0859 171.379 23.1719 171.879 23.3438C172.379 23.5078 172.805 23.7734 173.156 24.1406C173.516 24.5078 173.789 24.9844 173.977 25.5703C174.164 26.1484 174.258 26.8555 174.258 27.6914V36H172.078V27.668C172.078 27.0039 171.98 26.4727 171.785 26.0742C171.59 25.668 171.305 25.375 170.93 25.1953C170.555 25.0078 170.094 24.9141 169.547 24.9141C169.008 24.9141 168.516 25.0273 168.07 25.2539C167.633 25.4805 167.254 25.793 166.934 26.1914C166.621 26.5898 166.375 27.0469 166.195 27.5625C166.023 28.0703 165.938 28.6094 165.938 29.1797ZM179.906 23.3203V36H177.727V23.3203H179.906ZM177.562 19.957C177.562 19.6055 177.668 19.3086 177.879 19.0664C178.098 18.8242 178.418 18.7031 178.84 18.7031C179.254 18.7031 179.57 18.8242 179.789 19.0664C180.016 19.3086 180.129 19.6055 180.129 19.957C180.129 20.293 180.016 20.582 179.789 20.8242C179.57 21.0586 179.254 21.1758 178.84 21.1758C178.418 21.1758 178.098 21.0586 177.879 20.8242C177.668 20.582 177.562 20.293 177.562 19.957ZM188.695 23.3203V24.9844H181.84V23.3203H188.695ZM184.16 20.2383H186.328V32.8594C186.328 33.2891 186.395 33.6133 186.527 33.832C186.66 34.0508 186.832 34.1953 187.043 34.2656C187.254 34.3359 187.48 34.3711 187.723 34.3711C187.902 34.3711 188.09 34.3555 188.285 34.3242C188.488 34.2852 188.641 34.2539 188.742 34.2305L188.754 36C188.582 36.0547 188.355 36.1055 188.074 36.1523C187.801 36.207 187.469 36.2344 187.078 36.2344C186.547 36.2344 186.059 36.1289 185.613 35.918C185.168 35.707 184.812 35.3555 184.547 34.8633C184.289 34.3633 184.16 33.6914 184.16 32.8477V20.2383ZM190.43 29.8008V29.5312C190.43 28.6172 190.562 27.7695 190.828 26.9883C191.094 26.1992 191.477 25.5156 191.977 24.9375C192.477 24.3516 193.082 23.8984 193.793 23.5781C194.504 23.25 195.301 23.0859 196.184 23.0859C197.074 23.0859 197.875 23.25 198.586 23.5781C199.305 23.8984 199.914 24.3516 200.414 24.9375C200.922 25.5156 201.309 26.1992 201.574 26.9883C201.84 27.7695 201.973 28.6172 201.973 29.5312V29.8008C201.973 30.7148 201.84 31.5625 201.574 32.3438C201.309 33.125 200.922 33.8086 200.414 34.3945C199.914 34.9727 199.309 35.4258 198.598 35.7539C197.895 36.0742 197.098 36.2344 196.207 36.2344C195.316 36.2344 194.516 36.0742 193.805 35.7539C193.094 35.4258 192.484 34.9727 191.977 34.3945C191.477 33.8086 191.094 33.125 190.828 32.3438C190.562 31.5625 190.43 30.7148 190.43 29.8008ZM192.598 29.5312V29.8008C192.598 30.4336 192.672 31.0312 192.82 31.5938C192.969 32.1484 193.191 32.6406 193.488 33.0703C193.793 33.5 194.172 33.8398 194.625 34.0898C195.078 34.332 195.605 34.4531 196.207 34.4531C196.801 34.4531 197.32 34.332 197.766 34.0898C198.219 33.8398 198.594 33.5 198.891 33.0703C199.188 32.6406 199.41 32.1484 199.559 31.5938C199.715 31.0312 199.793 30.4336 199.793 29.8008V29.5312C199.793 28.9062 199.715 28.3164 199.559 27.7617C199.41 27.1992 199.184 26.7031 198.879 26.2734C198.582 25.8359 198.207 25.4922 197.754 25.2422C197.309 24.9922 196.785 24.8672 196.184 24.8672C195.59 24.8672 195.066 24.9922 194.613 25.2422C194.168 25.4922 193.793 25.8359 193.488 26.2734C193.191 26.7031 192.969 27.1992 192.82 27.7617C192.672 28.3164 192.598 28.9062 192.598 29.5312ZM206.859 25.3125V36H204.691V23.3203H206.801L206.859 25.3125ZM210.82 23.25L210.809 25.2656C210.629 25.2266 210.457 25.2031 210.293 25.1953C210.137 25.1797 209.957 25.1719 209.754 25.1719C209.254 25.1719 208.812 25.25 208.43 25.4062C208.047 25.5625 207.723 25.7812 207.457 26.0625C207.191 26.3438 206.98 26.6797 206.824 27.0703C206.676 27.4531 206.578 27.875 206.531 28.3359L205.922 28.6875C205.922 27.9219 205.996 27.2031 206.145 26.5312C206.301 25.8594 206.539 25.2656 206.859 24.75C207.18 24.2266 207.586 23.8203 208.078 23.5312C208.578 23.2344 209.172 23.0859 209.859 23.0859C210.016 23.0859 210.195 23.1055 210.398 23.1445C210.602 23.1758 210.742 23.2109 210.82 23.25Z" fill="#332317"/>
<path d="M405.174 20.1739C405.174 19.5256 404.648 19 404 19C403.352 19 402.826 19.5256 402.826 20.1739V26.8261H396.174C395.526 26.8261 395 27.3517 395 28C395 28.6483 395.526 29.1739 396.174 29.1739H402.826V35.8261C402.826 36.4744 403.352 37 404 37C404.648 37 405.174 36.4744 405.174 35.8261V29.1739H411.826C412.474 29.1739 413 28.6483 413 28C413 27.3517 412.474 26.8261 411.826 26.8261H405.174V20.1739Z" fill="#332317"/>
<path fill-rule="evenodd" clip-rule="evenodd" d="M31.75 28C31.75 27.5858 31.4142 27.25 31 27.25H17C16.5858 27.25 16.25 27.5858 16.25 28C16.25 28.4142 16.5858 28.75 17 28.75H31C31.4142 28.75 31.75 28.4142 31.75 28Z" fill="#332317"/>
<path fill-rule="evenodd" clip-rule="evenodd" d="M31.75 23C31.75 22.5858 31.4142 22.25 31 22.25H17C16.5858 22.25 16.25 22.5858 16.25 23C16.25 23.4142 16.5858 23.75 17 23.75H31C31.4142 23.75 31.75 23.4142 31.75 23Z" fill="#332317"/>
<path fill-rule="evenodd" clip-rule="evenodd" d="M31.75 33C31.75 32.5858 31.4142 32.25 31 32.25H17C16.5858 32.25 16.25 32.5858 16.25 33C16.25 33.4142 16.5858 33.75 17 33.75H31C31.4142 33.75 31.75 33.4142 31.75 33Z" fill="#332317"/>
</g>
<defs>
<filter id="filter0_d_1_5" x="8" y="80" width="412" height="116" filterUnits="userSpaceOnUse" color-interpolation-filters="sRGB">
<feFlood flood-opacity="0" result="BackgroundImageFix"/>
<feColorMatrix in="SourceAlpha" type="matrix" values="0 0 0 0 0 0 0 0 0 0 0 0 0 0 0 0 0 0 127 0" result="hardAlpha"/>
<feOffset dy="4"/>
<feGaussianBlur stdDeviation="2"/>
<feComposite in2="hardAlpha" operator="out"/>
<feColorMatrix type="matrix" values="0 0 0 0 0.768627 0 0 0 0 0.768627 0 0 0 0 0.768627 0 0 0 1 0"/>
<feBlend mode="normal" in2="BackgroundImageFix" result="effect1_dropShadow_1_5"/>
<feBlend mode="normal" in="SourceGraphic" in2="effect1_dropShadow_1_5" result="shape"/>
</filter>
<filter id="filter1_d_1_5" x="8" y="204" width="412" height="116" filterUnits="userSpaceOnUse" color-interpolation-filters="sRGB">
<feFlood flood-opacity="0" result="BackgroundImageFix"/>
<feColorMatrix in="SourceAlpha" type="matrix" values="0 0 0 0 0 0 0 0 0 0 0 0 0 0 0 0 0 0 127 0" result="hardAlpha"/>
<feOffset dy="4"/>
<feGaussianBlur stdDeviation="2"/>
<feComposite in2="hardAlpha" operator="out"/>
<feColorMatrix type="matrix" values="0 0 0 0 0.768627 0 0 0 0 0.768627 0 0 0 0 0.768627 0 0 0 1 0"/>
<feBlend mode="normal" in2="BackgroundImageFix" result="effect1_dropShadow_1_5"/>
<feBlend mode="normal" in="SourceGraphic" in2="effect1_dropShadow_1_5" result="shape"/>
</filter>
<filter id="filter2_d_1_5" x="8" y="328" width="412" height="116" filterUnits="userSpaceOnUse" color-interpolation-filters="sRGB">
<feFlood flood-opacity="0" result="BackgroundImageFix"/>
<feColorMatrix in="SourceAlpha" type="matrix" values="0 0 0 0 0 0 0 0 0 0 0 0 0 0 0 0 0 0 127 0" result="hardAlpha"/>
<feOffset dy="4"/>
<feGaussianBlur stdDeviation="2"/>
<feComposite in2="hardAlpha" operator="out"/>
<feColorMatrix type="matrix" values="0 0 0 0 0.768627 0 0 0 0 0.768627 0 0 0 0 0.768627 0 0 0 1 0"/>
<feBlend mode="normal" in2="BackgroundImageFix" result="effect1_dropShadow_1_5"/>
<feBlend mode="normal" in="SourceGraphic" in2="effect1_dropShadow_1_5" result="shape"/>
</filter>
<filter id="filter3_d_1_5" x="-4" y="0" width="436" height="64" filterUnits="userSpaceOnUse" color-interpolation-filters="sRGB">
<feFlood flood-opacity="0" result="BackgroundImageFix"/>
<feColorMatrix in="SourceAlpha" type="matrix" values="0 0 0 0 0 0 0 0 0 0 0 0 0 0 0 0 0 0 127 0" result="hardAlpha"/>
<feOffset dy="4"/>
<feGaussianBlur stdDeviation="2"/>
<feComposite in2="hardAlpha" operator="out"/>
<feColorMatrix type="matrix" values="0 0 0 0 0 0 0 0 0 0 0 0 0 0 0 0 0 0 0.25 0"/>
<feBlend mode="normal" in2="BackgroundImageFix" result="effect1_dropShadow_1_5"/>
<feBlend mode="normal" in="SourceGraphic" in2="effect1_dropShadow_1_5" result="shape"/>
</filter>
<clipPath id="clip0_1_5">
<rect width="428" height="762" fill="white"/>
</clipPath>
<clipPath id="clip1_1_5">
<rect width="70" height="24" fill="white" transform="translate(120 136)"/>
</clipPath>
<clipPath id="clip2_1_5">
<rect width="70" height="24" fill="white" transform="translate(120 260)"/>
</clipPath>
<clipPath id="clip3_1_5">
<rect width="70" height="24" fill="white" transform="translate(120 384)"/>
</clipPath>
</defs>
</svg>
